<svg xmlns="http://www.w3.org/2000/svg" version="1.1" viewBox="115 10 185 190">
<g stroke-width="2.00" fill="none" stroke-linecap="butt">
<path stroke="#808080" vector-effect="non-scaling-stroke" d="
  M 247.33 83.03
  Q 247.18 83.88 247.18 86.50
  Q 247.19 89.44 247.28 118.63
  Q 247.32 132.09 245.80 137.80
  C 241.67 153.29 229.60 168.41 213.42 171.89
  Q 196.68 175.49 175.76 171.87
  C 163.41 169.74 153.36 161.76 147.65 151.14
  Q 142.32 141.22 142.21 131.98
  Q 142.07 119.90 142.16 79.78
  C 142.18 71.98 134.66 67.36 127.97 71.51
  C 123.61 74.21 123.90 77.80 123.95 83.33
  Q 124.06 96.09 124.05 126.73
  Q 124.04 149.18 136.65 166.38
  Q 151.39 186.49 177.53 190.47
  Q 192.83 192.79 208.02 190.99
  C 236.55 187.60 257.30 165.58 263.11 138.07
  Q 264.68 130.62 264.48 113.06
  Q 264.46 111.49 264.34 57.48
  A 0.43 0.43 0.0 0 1 265.03 57.13
  L 276.54 65.57
  A 0.48 0.48 0.0 0 0 277.30 65.13
  L 271.92 15.78
  A 0.22 0.22 0.0 0 0 271.56 15.63
  L 230.98 48.97
  A 0.21 0.21 0.0 0 0 231.10 49.35
  L 245.90 50.36
  A 0.26 0.25 -75.3 0 1 246.11 50.73
  Q 228.54 86.68 201.14 114.88
  C 186.60 129.85 168.71 143.92 147.36 147.14
  A 0.27 0.27 0.0 0 0 147.21 147.61
  L 147.67 148.05
  A 0.15 0.13 -20.8 0 0 147.77 148.09
  Q 166.23 147.22 181.29 140.04
  C 207.69 127.46 229.08 105.86 246.77 82.79
  A 0.32 0.31 -21.3 0 1 247.33 83.03"
/>
<path stroke="#808080" vector-effect="non-scaling-stroke" d="
  M 86.41 247.06
  L 93.91 247.06
  A 0.92 0.92 0.0 0 0 94.83 246.14
  L 94.83 234.09
  A 0.54 0.54 0.0 0 1 95.38 233.55
  Q 106.45 233.62 112.73 233.51
  C 117.45 233.42 123.83 230.93 125.96 226.38
  C 130.83 216.00 124.15 206.11 112.99 206.10
  Q 88.99 206.08 86.05 205.97
  A 0.42 0.42 0.0 0 0 85.62 206.39
  L 85.62 246.28
  A 0.79 0.78 0.0 0 0 86.41 247.06"
/>
<path stroke="#808080" vector-effect="non-scaling-stroke" d="
  M 178.25 221.78
  Q 178.52 221.79 178.61 222.01
  Q 185.82 240.21 188.11 246.03
  A 1.78 1.77 -10.6 0 0 189.77 247.16
  L 196.85 247.16
  A 0.76 0.75 10.9 0 0 197.55 246.69
  L 214.63 206.42
  A 0.14 0.14 0.0 0 0 214.50 206.23
  L 204.93 206.23
  A 0.44 0.44 0.0 0 0 204.52 206.51
  L 193.37 234.19
  A 0.48 0.48 0.0 0 1 192.47 234.17
  L 182.37 206.85
  A 1.04 1.03 -9.2 0 0 181.42 206.17
  Q 180.37 206.14 178.35 206.13
  Q 176.33 206.11 175.28 206.13
  A 1.04 1.03 9.9 0 0 174.32 206.80
  L 163.88 233.99
  A 0.48 0.48 0.0 0 1 162.98 234.00
  L 152.18 206.18
  A 0.44 0.44 0.0 0 0 151.77 205.90
  L 142.20 205.78
  A 0.14 0.14 0.0 0 0 142.07 205.96
  L 158.64 246.45
  A 0.76 0.75 -10.2 0 0 159.34 246.92
  L 166.42 247.01
  A 1.78 1.77 11.3 0 0 168.09 245.90
  Q 170.45 240.11 177.89 222.00
  Q 177.99 221.78 178.25 221.78"
/>
<path stroke="#808080" vector-effect="non-scaling-stroke" d="
  M 348.68 206.44
  L 348.68 246.60
  A 0.40 0.40 0.0 0 0 349.08 247.00
  L 371.11 247.00
  A 20.43 19.62 -0.0 0 0 391.54 227.38
  L 391.54 225.66
  A 20.43 19.62 0.0 0 0 371.11 206.04
  L 349.08 206.04
  A 0.40 0.40 0.0 0 0 348.68 206.44"
/>
<path stroke="#808080" vector-effect="non-scaling-stroke" d="
  M 43.93 247.38
  C 52.60 247.39 59.89 244.31 63.94 236.41
  Q 65.85 232.70 65.82 223.22
  Q 65.79 210.00 65.72 206.77
  A 0.79 0.79 0.0 0 0 64.93 206.00
  L 57.30 206.00
  A 0.72 0.71 90.0 0 0 56.59 206.72
  Q 56.66 216.71 56.55 227.24
  C 56.47 234.80 51.16 239.32 43.94 239.32
  C 36.73 239.31 31.43 234.77 31.37 227.21
  Q 31.28 216.68 31.37 206.69
  A 0.72 0.71 -89.9 0 0 30.67 205.97
  L 23.04 205.95
  A 0.79 0.79 0.0 0 0 22.24 206.72
  Q 22.17 209.95 22.11 223.17
  Q 22.05 232.65 23.95 236.37
  C 27.99 244.27 35.27 247.37 43.93 247.38"
/>
<path stroke="#808080" vector-effect="non-scaling-stroke" d="
  M 248.41 216.70
  Q 248.55 216.70 248.67 216.77
  Q 248.82 216.86 248.87 216.95
  Q 257.06 233.11 263.96 246.78
  A 0.47 0.47 0.0 0 0 264.38 247.04
  L 273.98 247.04
  A 0.12 0.11 75.9 0 0 274.08 246.87
  L 253.84 206.76
  A 1.32 1.32 0.0 0 0 252.59 206.04
  Q 250.48 206.15 248.41 206.15
  Q 246.34 206.15 244.23 206.04
  A 1.32 1.32 0.0 0 0 242.98 206.76
  L 222.71 246.85
  A 0.12 0.11 -75.8 0 0 222.81 247.02
  L 232.41 247.03
  A 0.47 0.47 0.0 0 0 232.83 246.77
  Q 239.74 233.10 247.94 216.95
  Q 247.99 216.86 248.14 216.77
  Q 248.26 216.70 248.41 216.70"
/>
<path stroke="#808080" vector-effect="non-scaling-stroke" d="
  M 332.73 246.79
  L 322.69 232.57
  A 0.55 0.54 -28.5 0 1 322.94 231.75
  C 327.99 229.76 331.05 226.01 331.24 220.44
  C 331.58 210.44 324.17 205.78 314.76 206.00
  Q 303.00 206.26 290.13 205.98
  A 0.48 0.47 -88.9 0 0 289.64 206.46
  L 289.64 246.53
  A 0.43 0.42 -90.0 0 0 290.06 246.96
  L 298.17 246.96
  A 0.39 0.39 0.0 0 0 298.56 246.57
  L 298.56 233.82
  A 0.71 0.70 -90.0 0 1 299.26 233.11
  L 312.41 233.11
  A 0.91 0.90 72.5 0 1 313.15 233.50
  L 322.48 246.72
  A 0.57 0.55 71.3 0 0 322.93 246.95
  L 332.65 246.95
  A 0.10 0.10 0.0 0 0 332.73 246.79"
/>
<path stroke="#808080" vector-effect="non-scaling-stroke" d="
  M 78.46 266.56
  Q 77.47 266.57 76.53 266.61
  A 0.56 0.55 -1.3 0 1 75.94 266.06
  L 75.94 262.50
  A 0.61 0.61 0.0 0 0 75.33 261.89
  L 74.95 261.89
  A 0.82 0.82 0.0 0 0 74.13 262.66
  Q 73.98 265.08 74.06 267.51
  Q 73.98 269.93 74.14 272.35
  A 0.82 0.82 0.0 0 0 74.95 273.12
  L 75.33 273.12
  A 0.61 0.61 0.0 0 0 75.94 272.51
  L 75.94 268.95
  A 0.56 0.55 1.3 0 1 76.53 268.40
  Q 77.47 268.44 78.46 268.44
  Q 79.45 268.44 80.39 268.40
  A 0.56 0.55 -1.3 0 1 80.98 268.95
  L 80.98 272.51
  A 0.61 0.61 0.0 0 0 81.59 273.12
  L 81.97 273.12
  A 0.82 0.82 0.0 0 0 82.78 272.35
  Q 82.94 269.93 82.86 267.50
  Q 82.94 265.08 82.78 262.65
  A 0.82 0.82 0.0 0 0 81.97 261.89
  L 81.59 261.89
  A 0.61 0.61 0.0 0 0 80.98 262.50
  L 80.98 266.06
  A 0.56 0.55 1.3 0 1 80.39 266.61
  Q 79.45 266.56 78.46 266.56"
/>
<path stroke="#808080" vector-effect="non-scaling-stroke" d="
  M 154.60 270.93
  Q 155.91 270.93 156.27 270.95
  A 1.43 1.43 0.0 0 1 157.30 271.47
  L 158.75 273.24
  A 0.68 0.68 0.0 0 0 159.91 272.56
  Q 157.45 266.17 155.76 262.58
  Q 155.41 261.84 154.54 261.84
  Q 153.75 261.84 153.40 262.58
  Q 151.73 266.18 149.29 272.58
  A 0.68 0.68 0.0 0 0 150.46 273.26
  L 151.90 271.48
  A 1.43 1.43 0.0 0 1 152.93 270.95
  Q 153.29 270.93 154.60 270.93"
/>
<path stroke="#808080" vector-effect="non-scaling-stroke" d="
  M 169.57 267.96
  Q 172.42 272.18 173.22 273.01
  A 1.00 1.00 0.0 0 0 174.93 272.32
  L 174.93 262.60
  A 0.72 0.71 -90.0 0 0 174.22 261.88
  L 173.79 261.88
  A 0.84 0.84 0.0 0 0 172.95 262.72
  L 172.95 268.41
  A 0.42 0.42 0.0 0 1 172.19 268.65
  Q 171.66 267.90 171.14 267.13
  Q 168.28 262.91 167.49 262.08
  A 1.00 1.00 0.0 0 0 165.77 262.77
  L 165.77 272.49
  A 0.72 0.71 90.0 0 0 166.48 273.21
  L 166.91 273.21
  A 0.84 0.84 0.0 0 0 167.75 272.37
  L 167.75 266.68
  A 0.42 0.42 0.0 0 1 168.52 266.44
  Q 169.04 267.19 169.57 267.96"
/>
<path stroke="#808080" vector-effect="non-scaling-stroke" d="
  M 296.35 266.53
  C 295.73 266.53 294.66 264.49 293.42 262.54
  A 1.36 1.36 0.0 0 0 291.40 262.22
  Q 291.22 262.36 291.18 262.75
  Q 291.01 264.53 291.13 272.27
  A 0.90 0.90 0.0 0 0 292.12 273.15
  L 292.18 273.14
  A 1.05 1.04 86.6 0 0 293.10 272.10
  L 293.09 266.88
  A 0.50 0.50 0.0 0 1 294.02 266.62
  C 294.92 268.12 295.67 269.74 296.34 269.74
  C 297.01 269.74 297.77 268.12 298.67 266.63
  A 0.50 0.50 0.0 0 1 299.60 266.89
  L 299.58 272.11
  A 1.05 1.04 -86.4 0 0 300.49 273.15
  L 300.55 273.16
  A 0.90 0.90 0.0 0 0 301.55 272.28
  Q 301.69 264.54 301.52 262.76
  Q 301.48 262.37 301.30 262.23
  A 1.36 1.36 0.0 0 0 299.29 262.55
  C 298.04 264.49 296.96 266.53 296.35 266.53"
/>
<path stroke="#808080" vector-effect="non-scaling-stroke" d="
  M 328.73 267.14
  Q 325.90 263.01 325.12 262.21
  A 0.98 0.98 0.0 0 0 323.44 262.90
  L 323.51 272.43
  A 0.71 0.70 89.6 0 0 324.21 273.13
  L 324.63 273.13
  A 0.82 0.82 0.0 0 0 325.45 272.30
  L 325.41 266.72
  A 0.41 0.41 0.0 0 1 326.16 266.48
  Q 326.67 267.21 327.19 267.96
  Q 330.03 272.08 330.81 272.89
  A 0.98 0.98 0.0 0 0 332.49 272.20
  L 332.42 262.66
  A 0.71 0.70 89.6 0 0 331.72 261.96
  L 331.30 261.97
  A 0.82 0.82 0.0 0 0 330.48 262.80
  L 330.52 268.38
  A 0.41 0.41 0.0 0 1 329.77 268.61
  Q 329.26 267.88 328.73 267.14"
/>
<path stroke="#808080" vector-effect="non-scaling-stroke" d="
  M 61.79 270.03
  A 0.61 0.61 0.0 0 1 62.59 269.46
  C 67.62 271.03 70.43 264.26 65.83 262.39
  Q 64.26 261.75 60.51 262.11
  A 0.70 0.69 -2.6 0 0 59.89 262.79
  L 59.79 272.38
  A 0.74 0.73 0.6 0 0 60.52 273.12
  L 60.84 273.12
  A 0.92 0.92 0.0 0 0 61.77 272.22
  L 61.79 270.03"
/>
<path stroke="#808080" vector-effect="non-scaling-stroke" d="
  M 93.03 273.38
  Q 93.85 273.40 93.90 272.68
  Q 94.16 269.15 94.18 269.02
  A 2.84 2.67 -24.8 0 1 94.56 268.08
  L 97.87 263.03
  A 0.58 0.58 0.0 0 0 97.54 262.16
  L 97.30 262.09
  A 1.31 1.31 0.0 0 0 95.96 262.61
  Q 95.77 262.87 93.46 266.14
  C 93.39 266.23 93.33 266.24 93.20 266.23
  C 93.07 266.23 93.01 266.22 92.95 266.13
  Q 90.79 262.75 90.61 262.48
  A 1.31 1.31 0.0 0 0 89.30 261.90
  L 89.05 261.96
  A 0.58 0.58 0.0 0 0 88.68 262.81
  L 91.75 268.01
  A 2.84 2.67 27.5 0 1 92.09 268.97
  Q 92.10 269.10 92.19 272.64
  Q 92.21 273.36 93.03 273.38"
/>
<path stroke="#808080" vector-effect="non-scaling-stroke" d="
  M 106.78 263.98
  Q 108.90 264.22 109.61 264.74
  A 1.11 0.94 83.6 0 0 110.74 263.04
  C 109.00 260.92 102.98 261.73 103.46 265.27
  C 103.85 268.16 106.50 267.91 108.54 268.54
  A 1.23 1.22 -66.4 0 1 109.24 270.33
  L 109.22 270.38
  A 2.01 2.01 0.0 0 1 106.97 271.31
  Q 105.63 270.97 104.49 270.29
  A 0.85 0.78 -66.0 0 0 103.32 270.80
  Q 103.15 271.35 103.55 271.71
  Q 106.39 274.32 109.94 272.63
  A 2.34 2.29 4.9 0 0 110.80 271.92
  Q 112.43 269.69 110.58 267.54
  A 1.80 1.80 0.0 0 0 109.66 266.97
  Q 106.28 266.12 105.90 265.70
  A 1.03 1.03 0.0 0 1 106.78 263.98"
/>
<path stroke="#808080" vector-effect="non-scaling-stroke" d="
  M 119.4783 262.8416
  A 0.91 0.91 0.0 0 0 118.5699 261.9301
  L 118.5099 261.9300
  A 0.91 0.91 0.0 0 0 117.5983 262.8384
  L 117.5817 272.3784
  A 0.91 0.91 0.0 0 0 118.4901 273.2899
  L 118.5501 273.2900
  A 0.91 0.91 0.0 0 0 119.4617 272.3816
  L 119.4783 262.8416"
/>
<path stroke="#808080" vector-effect="non-scaling-stroke" d="
  M 136.38 267.62
  A 5.58 5.58 0.0 0 0 130.80 262.04
  A 5.58 5.58 0.0 0 0 125.22 267.62
  A 5.58 5.58 0.0 0 0 130.80 273.20
  A 5.58 5.58 0.0 0 0 136.38 267.62"
/>
<path stroke="#808080" vector-effect="non-scaling-stroke" d="
  M 181.54 262.83
  L 181.48 272.39
  A 0.76 0.76 0.0 0 0 182.23 273.15
  L 185.60 273.18
  A 5.45 5.41 0.4 0 0 191.09 267.80
  L 191.09 267.54
  A 5.45 5.41 0.4 0 0 185.68 262.10
  L 182.31 262.07
  A 0.76 0.76 0.0 0 0 181.54 262.83"
/>
<path stroke="#808080" vector-effect="non-scaling-stroke" d="
  M 207.40 270.21
  A 0.62 0.62 0.0 0 1 208.20 269.62
  C 213.33 271.16 216.11 264.26 211.42 262.41
  Q 209.82 261.77 206.02 262.18
  A 0.71 0.70 -3.2 0 0 205.39 262.88
  L 205.39 272.62
  A 0.75 0.74 -0.0 0 0 206.14 273.36
  L 206.47 273.36
  A 0.93 0.93 0.0 0 0 207.40 272.43
  L 207.40 270.21"
/>
<path stroke="#808080" vector-effect="non-scaling-stroke" d="
  M 219.55 267.63
  Q 219.58 272.42 219.61 272.69
  A 0.48 0.47 0.3 0 0 220.07 273.15
  L 226.61 273.17
  A 0.76 0.76 0.0 0 0 227.37 272.41
  L 227.37 272.10
  A 0.91 0.91 0.0 0 0 226.46 271.19
  L 222.44 271.19
  A 1.11 1.11 0.0 0 1 221.33 270.08
  L 221.33 269.79
  A 1.31 1.31 0.0 0 1 222.77 268.49
  Q 226.60 268.88 226.51 267.58
  Q 226.59 266.31 222.76 266.73
  A 1.31 1.31 0.0 0 1 221.31 265.45
  L 221.31 265.16
  A 1.11 1.11 0.0 0 1 222.41 264.04
  L 226.43 264.00
  A 0.91 0.91 0.0 0 0 227.33 263.08
  L 227.32 262.77
  A 0.76 0.76 0.0 0 0 226.56 262.02
  L 220.02 262.10
  A 0.48 0.47 -0.9 0 0 219.56 262.57
  Q 219.53 262.83 219.55 267.63"
/>
<path stroke="#808080" vector-effect="non-scaling-stroke" d="
  M 234.03 273.15
  A 0.91 0.91 0.0 0 0 234.94 272.24
  L 234.94 270.36
  A 1.20 1.20 0.0 0 1 237.09 269.62
  Q 239.17 272.31 240.24 273.20
  A 0.74 0.74 0.0 0 0 241.32 272.21
  L 239.56 269.75
  A 0.79 0.78 -29.3 0 1 239.90 268.57
  Q 241.00 268.12 241.27 266.97
  Q 242.16 263.21 238.73 262.00
  Q 238.65 261.97 233.57 262.12
  A 0.62 0.62 0.0 0 0 232.97 262.75
  L 233.01 272.45
  A 0.70 0.69 89.8 0 0 233.70 273.15
  L 234.03 273.15"
/>
<path stroke="#808080" vector-effect="non-scaling-stroke" d="
  M 253.82 266.72
  Q 252.53 266.48 250.34 266.63
  A 1.15 1.15 0.0 0 1 249.11 265.51
  L 249.10 265.34
  A 1.13 1.13 0.0 0 1 250.22 264.17
  L 254.11 264.15
  A 0.70 0.69 90.0 0 0 254.80 263.45
  L 254.80 262.96
  A 0.88 0.88 0.0 0 0 253.92 262.08
  L 248.08 262.08
  A 0.76 0.75 90.0 0 0 247.33 262.84
  L 247.33 272.45
  A 0.79 0.79 0.0 0 0 248.12 273.24
  L 248.56 273.24
  A 0.86 0.85 -0.0 0 0 249.42 272.39
  L 249.42 269.17
  A 0.66 0.66 0.0 0 1 250.14 268.51
  Q 252.41 268.71 253.83 268.43
  A 0.87 0.87 0.0 0 0 253.82 266.72"
/>
<path stroke="#808080" vector-effect="non-scaling-stroke" d="
  M 265.9190 261.9204
  A 5.73 5.45 -84.1 0 0 259.9089 267.0598
  A 5.73 5.45 -84.1 0 0 264.7410 273.3196
  A 5.73 5.45 -84.1 0 0 270.7511 268.1802
  A 5.73 5.45 -84.1 0 0 265.9190 261.9204"
/>
<path stroke="#808080" vector-effect="non-scaling-stroke" d="
  M 277.55 273.16
  A 0.91 0.91 0.0 0 0 278.46 272.25
  L 278.46 270.38
  A 1.20 1.20 0.0 0 1 280.61 269.65
  Q 282.67 272.34 283.73 273.23
  A 0.74 0.73 2.5 0 0 284.81 272.25
  L 283.07 269.79
  A 0.78 0.78 0.0 0 1 283.41 268.62
  Q 284.51 268.17 284.78 267.03
  Q 285.68 263.28 282.27 262.07
  Q 282.19 262.04 277.13 262.17
  A 0.62 0.62 0.0 0 0 276.53 262.79
  L 276.53 272.46
  A 0.70 0.69 -90.0 0 0 277.22 273.16
  L 277.55 273.16"
/>
<path stroke="#808080" vector-effect="non-scaling-stroke" d="
  M 312.53 270.82
  Q 313.82 270.81 314.17 270.83
  A 1.41 1.40 71.9 0 1 315.18 271.35
  L 316.61 273.09
  A 0.67 0.67 0.0 0 0 317.75 272.42
  Q 315.33 266.14 313.67 262.61
  Q 313.33 261.88 312.55 261.88
  Q 311.69 261.88 311.35 262.61
  Q 309.71 266.15 307.31 272.44
  A 0.67 0.67 0.0 0 0 308.45 273.11
  L 309.87 271.36
  A 1.41 1.40 -72.1 0 1 310.88 270.84
  Q 311.23 270.82 312.53 270.82"
/>
<path stroke="#808080" vector-effect="non-scaling-stroke" d="
  M 338.30 267.77
  C 338.40 271.44 341.13 273.71 344.77 273.14
  Q 347.11 272.77 347.49 270.99
  A 0.53 0.53 0.0 0 0 346.91 270.35
  Q 345.71 270.47 345.22 270.83
  A 2.85 2.84 43.7 0 1 342.01 270.89
  Q 340.27 269.75 340.21 267.72
  Q 340.16 265.69 341.84 264.45
  A 2.85 2.84 -46.8 0 1 345.05 264.35
  Q 345.56 264.68 346.76 264.74
  A 0.53 0.53 0.0 0 0 347.31 264.07
  Q 346.83 262.31 344.47 262.07
  C 340.81 261.69 338.20 264.09 338.30 267.77"
/>
<path stroke="#808080" vector-effect="non-scaling-stroke" d="
  M 353.32 267.56
  Q 353.35 272.33 353.37 272.60
  A 0.47 0.46 0.3 0 0 353.84 273.06
  L 360.34 273.08
  A 0.76 0.76 0.0 0 0 361.10 272.32
  L 361.10 272.01
  A 0.91 0.91 0.0 0 0 360.19 271.11
  L 356.19 271.11
  A 1.10 1.10 0.0 0 1 355.09 270.00
  L 355.09 269.72
  A 1.30 1.30 0.0 0 1 356.52 268.42
  Q 360.33 268.81 360.25 267.52
  Q 360.32 266.26 356.51 266.68
  A 1.30 1.30 0.0 0 1 355.07 265.40
  L 355.07 265.11
  A 1.10 1.10 0.0 0 1 356.16 263.99
  L 360.16 263.96
  A 0.91 0.91 0.0 0 0 361.06 263.04
  L 361.05 262.73
  A 0.76 0.76 0.0 0 0 360.29 261.99
  L 353.79 262.07
  A 0.47 0.46 -0.9 0 0 353.33 262.53
  Q 353.30 262.80 353.32 267.56"
/>
<path stroke="#808080" vector-effect="non-scaling-stroke" d="
  M 47.94 267.85
  A 1.13 1.13 0.0 0 0 46.81 266.72
  L 22.59 266.72
  A 1.13 1.13 0.0 0 0 21.46 267.85
  L 21.46 268.09
  A 1.13 1.13 0.0 0 0 22.59 269.22
  L 46.81 269.22
  A 1.13 1.13 0.0 0 0 47.94 268.09
  L 47.94 267.85"
/>
<path stroke="#808080" vector-effect="non-scaling-stroke" d="
  M 392.5596 267.7410
  A 1.03 1.03 0.0 0 0 391.5278 266.7128
  L 371.8678 266.7472
  A 1.03 1.03 0.0 0 0 370.8396 267.7790
  L 370.8404 268.2590
  A 1.03 1.03 0.0 0 0 371.8722 269.2872
  L 391.5322 269.2528
  A 1.03 1.03 0.0 0 0 392.5604 268.2210
  L 392.5596 267.7410"
/>
<path stroke="#808080" vector-effect="non-scaling-stroke" d="
  M 94.85 214.69
  L 94.89 225.07
  A 0.57 0.57 0.0 0 0 95.46 225.64
  L 112.22 225.58
  A 6.27 5.53 -0.2 0 0 118.47 220.03
  L 118.47 219.57
  A 6.27 5.53 -0.2 0 0 112.18 214.06
  L 95.42 214.12
  A 0.57 0.57 0.0 0 0 94.85 214.69"
/>
<path stroke="#808080" vector-effect="non-scaling-stroke" d="
  M 357.61 214.75
  L 357.45 238.27
  A 0.69 0.69 0.0 0 0 358.13 238.97
  L 369.89 239.05
  A 12.35 11.40 0.4 0 0 382.32 227.74
  L 382.34 225.64
  A 12.35 11.40 0.4 0 0 370.07 214.15
  L 358.31 214.07
  A 0.69 0.69 0.0 0 0 357.61 214.75"
/>
<path stroke="#808080" vector-effect="non-scaling-stroke" d="
  M 298.52 214.81
  L 298.56 224.89
  A 0.70 0.70 0.0 0 0 299.26 225.59
  L 315.93 225.53
  A 6.37 5.65 -0.2 0 0 322.28 219.86
  L 322.28 219.68
  A 6.37 5.65 -0.2 0 0 315.89 214.05
  L 299.22 214.11
  A 0.70 0.70 0.0 0 0 298.52 214.81"
/>
<path stroke="#808080" vector-effect="non-scaling-stroke" d="
  M 153.58 268.96
  L 155.56 268.96
  A 0.31 0.31 0.0 0 0 155.87 268.65
  L 155.87 268.45
  A 3.25 1.30 90.0 0 0 154.57 265.20
  A 3.25 1.30 90.0 0 0 153.27 268.45
  L 153.27 268.65
  A 0.31 0.31 0.0 0 0 153.58 268.96"
/>
<path stroke="#808080" vector-effect="non-scaling-stroke" d="
  M 61.73 264.78
  L 61.81 267.10
  A 0.82 0.82 0.0 0 0 62.66 267.89
  L 63.95 267.85
  A 2.49 1.87 -2.0 0 0 66.37 265.89
  L 66.36 265.67
  A 2.49 1.87 -2.0 0 0 63.81 263.89
  L 62.52 263.93
  A 0.82 0.82 0.0 0 0 61.73 264.78"
/>
<path stroke="#808080" vector-effect="non-scaling-stroke" d="
  M 130.9959 263.8625
  A 3.71 3.46 -87.9 0 0 127.4023 267.4432
  A 3.71 3.46 -87.9 0 0 130.7241 271.2775
  A 3.71 3.46 -87.9 0 0 134.3177 267.6968
  A 3.71 3.46 -87.9 0 0 130.9959 263.8625"
/>
<path stroke="#808080" vector-effect="non-scaling-stroke" d="
  M 183.59 264.66
  L 183.47 270.38
  A 0.75 0.75 0.0 0 0 184.20 271.15
  L 185.65 271.18
  A 3.40 3.39 1.2 0 0 189.12 267.86
  L 189.13 267.42
  A 3.40 3.39 1.2 0 0 185.81 263.96
  L 184.36 263.93
  A 0.75 0.75 0.0 0 0 183.59 264.66"
/>
<path stroke="#808080" vector-effect="non-scaling-stroke" d="
  M 207.41 264.73
  L 207.35 267.09
  A 0.84 0.84 0.0 0 0 208.17 267.95
  L 209.05 267.98
  A 2.60 1.88 1.5 0 0 211.70 266.17
  L 211.70 265.89
  A 2.60 1.88 1.5 0 0 209.15 263.94
  L 208.27 263.92
  A 0.84 0.84 0.0 0 0 207.41 264.73"
/>
<path stroke="#808080" vector-effect="non-scaling-stroke" d="
  M 239.4120 265.3127
  A 1.34 1.34 0.0 0 0 238.0442 264.0011
  L 236.2046 264.0396
  A 1.34 1.34 0.0 0 0 234.8930 265.4074
  L 234.9080 266.1273
  A 1.34 1.34 0.0 0 0 236.2758 267.4389
  L 238.1154 267.4004
  A 1.34 1.34 0.0 0 0 239.4270 266.0326
  L 239.4120 265.3127"
/>
<path stroke="#808080" vector-effect="non-scaling-stroke" d="
  M 265.2188 263.8423
  A 3.76 3.50 -92.0 0 0 261.8521 267.7221
  A 3.76 3.50 -92.0 0 0 265.4812 271.3577
  A 3.76 3.50 -92.0 0 0 268.8479 267.4779
  A 3.76 3.50 -92.0 0 0 265.2188 263.8423"
/>
<path stroke="#808080" vector-effect="non-scaling-stroke" d="
  M 282.7742 265.2802
  A 1.39 1.39 0.0 0 0 281.3042 263.9751
  L 279.6870 264.0711
  A 1.39 1.39 0.0 0 0 278.3819 265.5411
  L 278.4258 266.2798
  A 1.39 1.39 0.0 0 0 279.8958 267.5849
  L 281.5130 267.4889
  A 1.39 1.39 0.0 0 0 282.8181 266.0189
  L 282.7742 265.2802"
/>
<path stroke="#808080" vector-effect="non-scaling-stroke" d="
  M 312.14 265.29
  L 310.92 268.17
  A 0.69 0.68 -76.5 0 0 311.50 269.12
  L 313.49 269.25
  A 0.58 0.58 0.0 0 0 314.07 268.47
  L 312.90 265.31
  A 0.41 0.41 0.0 0 0 312.14 265.29"
/>
</g>
<path fill="none" d="
  M 414.00 0.00
  L 414.00 280.00
  L 0.00 280.00
  L 0.00 0.00
  L 414.00 0.00
  Z
  M 247.33 83.03
  Q 247.18 83.88 247.18 86.50
  Q 247.19 89.44 247.28 118.63
  Q 247.32 132.09 245.80 137.80
  C 241.67 153.29 229.60 168.41 213.42 171.89
  Q 196.68 175.49 175.76 171.87
  C 163.41 169.74 153.36 161.76 147.65 151.14
  Q 142.32 141.22 142.21 131.98
  Q 142.07 119.90 142.16 79.78
  C 142.18 71.98 134.66 67.36 127.97 71.51
  C 123.61 74.21 123.90 77.80 123.95 83.33
  Q 124.06 96.09 124.05 126.73
  Q 124.04 149.18 136.65 166.38
  Q 151.39 186.49 177.53 190.47
  Q 192.83 192.79 208.02 190.99
  C 236.55 187.60 257.30 165.58 263.11 138.07
  Q 264.68 130.62 264.48 113.06
  Q 264.46 111.49 264.34 57.48
  A 0.43 0.43 0.0 0 1 265.03 57.13
  L 276.54 65.57
  A 0.48 0.48 0.0 0 0 277.30 65.13
  L 271.92 15.78
  A 0.22 0.22 0.0 0 0 271.56 15.63
  L 230.98 48.97
  A 0.21 0.21 0.0 0 0 231.10 49.35
  L 245.90 50.36
  A 0.26 0.25 -75.3 0 1 246.11 50.73
  Q 228.54 86.68 201.14 114.88
  C 186.60 129.85 168.71 143.92 147.36 147.14
  A 0.27 0.27 0.0 0 0 147.21 147.61
  L 147.67 148.05
  A 0.15 0.13 -20.8 0 0 147.77 148.09
  Q 166.23 147.22 181.29 140.04
  C 207.69 127.46 229.08 105.86 246.77 82.79
  A 0.32 0.31 -21.3 0 1 247.33 83.03
  Z
  M 86.41 247.06
  L 93.91 247.06
  A 0.92 0.92 0.0 0 0 94.83 246.14
  L 94.83 234.09
  A 0.54 0.54 0.0 0 1 95.38 233.55
  Q 106.45 233.62 112.73 233.51
  C 117.45 233.42 123.83 230.93 125.96 226.38
  C 130.83 216.00 124.15 206.11 112.99 206.10
  Q 88.99 206.08 86.05 205.97
  A 0.42 0.42 0.0 0 0 85.62 206.39
  L 85.62 246.28
  A 0.79 0.78 0.0 0 0 86.41 247.06
  Z
  M 178.25 221.78
  Q 178.52 221.79 178.61 222.01
  Q 185.82 240.21 188.11 246.03
  A 1.78 1.77 -10.6 0 0 189.77 247.16
  L 196.85 247.16
  A 0.76 0.75 10.9 0 0 197.55 246.69
  L 214.63 206.42
  A 0.14 0.14 0.0 0 0 214.50 206.23
  L 204.93 206.23
  A 0.44 0.44 0.0 0 0 204.52 206.51
  L 193.37 234.19
  A 0.48 0.48 0.0 0 1 192.47 234.17
  L 182.37 206.85
  A 1.04 1.03 -9.2 0 0 181.42 206.17
  Q 180.37 206.14 178.35 206.13
  Q 176.33 206.11 175.28 206.13
  A 1.04 1.03 9.9 0 0 174.32 206.80
  L 163.88 233.99
  A 0.48 0.48 0.0 0 1 162.98 234.00
  L 152.18 206.18
  A 0.44 0.44 0.0 0 0 151.77 205.90
  L 142.20 205.78
  A 0.14 0.14 0.0 0 0 142.07 205.96
  L 158.64 246.45
  A 0.76 0.75 -10.2 0 0 159.34 246.92
  L 166.42 247.01
  A 1.78 1.77 11.3 0 0 168.09 245.90
  Q 170.45 240.11 177.89 222.00
  Q 177.99 221.78 178.25 221.78
  Z
  M 348.68 206.44
  L 348.68 246.60
  A 0.40 0.40 0.0 0 0 349.08 247.00
  L 371.11 247.00
  A 20.43 19.62 -0.0 0 0 391.54 227.38
  L 391.54 225.66
  A 20.43 19.62 0.0 0 0 371.11 206.04
  L 349.08 206.04
  A 0.40 0.40 0.0 0 0 348.68 206.44
  Z
  M 43.93 247.38
  C 52.60 247.39 59.89 244.31 63.94 236.41
  Q 65.85 232.70 65.82 223.22
  Q 65.79 210.00 65.72 206.77
  A 0.79 0.79 0.0 0 0 64.93 206.00
  L 57.30 206.00
  A 0.72 0.71 90.0 0 0 56.59 206.72
  Q 56.66 216.71 56.55 227.24
  C 56.47 234.80 51.16 239.32 43.94 239.32
  C 36.73 239.31 31.43 234.77 31.37 227.21
  Q 31.28 216.68 31.37 206.69
  A 0.72 0.71 -89.9 0 0 30.67 205.97
  L 23.04 205.95
  A 0.79 0.79 0.0 0 0 22.24 206.72
  Q 22.17 209.95 22.11 223.17
  Q 22.05 232.65 23.95 236.37
  C 27.99 244.27 35.27 247.37 43.93 247.38
  Z
  M 248.41 216.70
  Q 248.55 216.70 248.67 216.77
  Q 248.82 216.86 248.87 216.95
  Q 257.06 233.11 263.96 246.78
  A 0.47 0.47 0.0 0 0 264.38 247.04
  L 273.98 247.04
  A 0.12 0.11 75.9 0 0 274.08 246.87
  L 253.84 206.76
  A 1.32 1.32 0.0 0 0 252.59 206.04
  Q 250.48 206.15 248.41 206.15
  Q 246.34 206.15 244.23 206.04
  A 1.32 1.32 0.0 0 0 242.98 206.76
  L 222.71 246.85
  A 0.12 0.11 -75.8 0 0 222.81 247.02
  L 232.41 247.03
  A 0.47 0.47 0.0 0 0 232.83 246.77
  Q 239.74 233.10 247.94 216.95
  Q 247.99 216.86 248.14 216.77
  Q 248.26 216.70 248.41 216.70
  Z
  M 332.73 246.79
  L 322.69 232.57
  A 0.55 0.54 -28.5 0 1 322.94 231.75
  C 327.99 229.76 331.05 226.01 331.24 220.44
  C 331.58 210.44 324.17 205.78 314.76 206.00
  Q 303.00 206.26 290.13 205.98
  A 0.48 0.47 -88.9 0 0 289.64 206.46
  L 289.64 246.53
  A 0.43 0.42 -90.0 0 0 290.06 246.96
  L 298.17 246.96
  A 0.39 0.39 0.0 0 0 298.56 246.57
  L 298.56 233.82
  A 0.71 0.70 -90.0 0 1 299.26 233.11
  L 312.41 233.11
  A 0.91 0.90 72.5 0 1 313.15 233.50
  L 322.48 246.72
  A 0.57 0.55 71.3 0 0 322.93 246.95
  L 332.65 246.95
  A 0.10 0.10 0.0 0 0 332.73 246.79
  Z
  M 78.46 266.56
  Q 77.47 266.57 76.53 266.61
  A 0.56 0.55 -1.3 0 1 75.94 266.06
  L 75.94 262.50
  A 0.61 0.61 0.0 0 0 75.33 261.89
  L 74.95 261.89
  A 0.82 0.82 0.0 0 0 74.13 262.66
  Q 73.98 265.08 74.06 267.51
  Q 73.98 269.93 74.14 272.35
  A 0.82 0.82 0.0 0 0 74.95 273.12
  L 75.33 273.12
  A 0.61 0.61 0.0 0 0 75.94 272.51
  L 75.94 268.95
  A 0.56 0.55 1.3 0 1 76.53 268.40
  Q 77.47 268.44 78.46 268.44
  Q 79.45 268.44 80.39 268.40
  A 0.56 0.55 -1.3 0 1 80.98 268.95
  L 80.98 272.51
  A 0.61 0.61 0.0 0 0 81.59 273.12
  L 81.97 273.12
  A 0.82 0.82 0.0 0 0 82.78 272.35
  Q 82.94 269.93 82.86 267.50
  Q 82.94 265.08 82.78 262.65
  A 0.82 0.82 0.0 0 0 81.97 261.89
  L 81.59 261.89
  A 0.61 0.61 0.0 0 0 80.98 262.50
  L 80.98 266.06
  A 0.56 0.55 1.3 0 1 80.39 266.61
  Q 79.45 266.56 78.46 266.56
  Z
  M 154.60 270.93
  Q 155.91 270.93 156.27 270.95
  A 1.43 1.43 0.0 0 1 157.30 271.47
  L 158.75 273.24
  A 0.68 0.68 0.0 0 0 159.91 272.56
  Q 157.45 266.17 155.76 262.58
  Q 155.41 261.84 154.54 261.84
  Q 153.75 261.84 153.40 262.58
  Q 151.73 266.18 149.29 272.58
  A 0.68 0.68 0.0 0 0 150.46 273.26
  L 151.90 271.48
  A 1.43 1.43 0.0 0 1 152.93 270.95
  Q 153.29 270.93 154.60 270.93
  Z
  M 169.57 267.96
  Q 172.42 272.18 173.22 273.01
  A 1.00 1.00 0.0 0 0 174.93 272.32
  L 174.93 262.60
  A 0.72 0.71 -90.0 0 0 174.22 261.88
  L 173.79 261.88
  A 0.84 0.84 0.0 0 0 172.95 262.72
  L 172.95 268.41
  A 0.42 0.42 0.0 0 1 172.19 268.65
  Q 171.66 267.90 171.14 267.13
  Q 168.28 262.91 167.49 262.08
  A 1.00 1.00 0.0 0 0 165.77 262.77
  L 165.77 272.49
  A 0.72 0.71 90.0 0 0 166.48 273.21
  L 166.91 273.21
  A 0.84 0.84 0.0 0 0 167.75 272.37
  L 167.75 266.68
  A 0.42 0.42 0.0 0 1 168.52 266.44
  Q 169.04 267.19 169.57 267.96
  Z
  M 296.35 266.53
  C 295.73 266.53 294.66 264.49 293.42 262.54
  A 1.36 1.36 0.0 0 0 291.40 262.22
  Q 291.22 262.36 291.18 262.75
  Q 291.01 264.53 291.13 272.27
  A 0.90 0.90 0.0 0 0 292.12 273.15
  L 292.18 273.14
  A 1.05 1.04 86.6 0 0 293.10 272.10
  L 293.09 266.88
  A 0.50 0.50 0.0 0 1 294.02 266.62
  C 294.92 268.12 295.67 269.74 296.34 269.74
  C 297.01 269.74 297.77 268.12 298.67 266.63
  A 0.50 0.50 0.0 0 1 299.60 266.89
  L 299.58 272.11
  A 1.05 1.04 -86.4 0 0 300.49 273.15
  L 300.55 273.16
  A 0.90 0.90 0.0 0 0 301.55 272.28
  Q 301.69 264.54 301.52 262.76
  Q 301.48 262.37 301.30 262.23
  A 1.36 1.36 0.0 0 0 299.29 262.55
  C 298.04 264.49 296.96 266.53 296.35 266.53
  Z
  M 328.73 267.14
  Q 325.90 263.01 325.12 262.21
  A 0.98 0.98 0.0 0 0 323.44 262.90
  L 323.51 272.43
  A 0.71 0.70 89.6 0 0 324.21 273.13
  L 324.63 273.13
  A 0.82 0.82 0.0 0 0 325.45 272.30
  L 325.41 266.72
  A 0.41 0.41 0.0 0 1 326.16 266.48
  Q 326.67 267.21 327.19 267.96
  Q 330.03 272.08 330.81 272.89
  A 0.98 0.98 0.0 0 0 332.49 272.20
  L 332.42 262.66
  A 0.71 0.70 89.6 0 0 331.72 261.96
  L 331.30 261.97
  A 0.82 0.82 0.0 0 0 330.48 262.80
  L 330.52 268.38
  A 0.41 0.41 0.0 0 1 329.77 268.61
  Q 329.26 267.88 328.73 267.14
  Z
  M 61.79 270.03
  A 0.61 0.61 0.0 0 1 62.59 269.46
  C 67.62 271.03 70.43 264.26 65.83 262.39
  Q 64.26 261.75 60.51 262.11
  A 0.70 0.69 -2.6 0 0 59.89 262.79
  L 59.79 272.38
  A 0.74 0.73 0.6 0 0 60.52 273.12
  L 60.84 273.12
  A 0.92 0.92 0.0 0 0 61.77 272.22
  L 61.79 270.03
  Z
  M 93.03 273.38
  Q 93.85 273.40 93.90 272.68
  Q 94.16 269.15 94.18 269.02
  A 2.84 2.67 -24.8 0 1 94.56 268.08
  L 97.87 263.03
  A 0.58 0.58 0.0 0 0 97.54 262.16
  L 97.30 262.09
  A 1.31 1.31 0.0 0 0 95.96 262.61
  Q 95.77 262.87 93.46 266.14
  C 93.39 266.23 93.33 266.24 93.20 266.23
  C 93.07 266.23 93.01 266.22 92.95 266.13
  Q 90.79 262.75 90.61 262.48
  A 1.31 1.31 0.0 0 0 89.30 261.90
  L 89.05 261.96
  A 0.58 0.58 0.0 0 0 88.68 262.81
  L 91.75 268.01
  A 2.84 2.67 27.5 0 1 92.09 268.97
  Q 92.10 269.10 92.19 272.64
  Q 92.21 273.36 93.03 273.38
  Z
  M 106.78 263.98
  Q 108.90 264.22 109.61 264.74
  A 1.11 0.94 83.6 0 0 110.74 263.04
  C 109.00 260.92 102.98 261.73 103.46 265.27
  C 103.85 268.16 106.50 267.91 108.54 268.54
  A 1.23 1.22 -66.4 0 1 109.24 270.33
  L 109.22 270.38
  A 2.01 2.01 0.0 0 1 106.97 271.31
  Q 105.63 270.97 104.49 270.29
  A 0.85 0.78 -66.0 0 0 103.32 270.80
  Q 103.15 271.35 103.55 271.71
  Q 106.39 274.32 109.94 272.63
  A 2.34 2.29 4.9 0 0 110.80 271.92
  Q 112.43 269.69 110.58 267.54
  A 1.80 1.80 0.0 0 0 109.66 266.97
  Q 106.28 266.12 105.90 265.70
  A 1.03 1.03 0.0 0 1 106.78 263.98
  Z
  M 119.4783 262.8416
  A 0.91 0.91 0.0 0 0 118.5699 261.9301
  L 118.5099 261.9300
  A 0.91 0.91 0.0 0 0 117.5983 262.8384
  L 117.5817 272.3784
  A 0.91 0.91 0.0 0 0 118.4901 273.2899
  L 118.5501 273.2900
  A 0.91 0.91 0.0 0 0 119.4617 272.3816
  L 119.4783 262.8416
  Z
  M 136.38 267.62
  A 5.58 5.58 0.0 0 0 130.80 262.04
  A 5.58 5.58 0.0 0 0 125.22 267.62
  A 5.58 5.58 0.0 0 0 130.80 273.20
  A 5.58 5.58 0.0 0 0 136.38 267.62
  Z
  M 181.54 262.83
  L 181.48 272.39
  A 0.76 0.76 0.0 0 0 182.23 273.15
  L 185.60 273.18
  A 5.45 5.41 0.4 0 0 191.09 267.80
  L 191.09 267.54
  A 5.45 5.41 0.4 0 0 185.68 262.10
  L 182.31 262.07
  A 0.76 0.76 0.0 0 0 181.54 262.83
  Z
  M 207.40 270.21
  A 0.62 0.62 0.0 0 1 208.20 269.62
  C 213.33 271.16 216.11 264.26 211.42 262.41
  Q 209.82 261.77 206.02 262.18
  A 0.71 0.70 -3.2 0 0 205.39 262.88
  L 205.39 272.62
  A 0.75 0.74 -0.0 0 0 206.14 273.36
  L 206.47 273.36
  A 0.93 0.93 0.0 0 0 207.40 272.43
  L 207.40 270.21
  Z
  M 219.55 267.63
  Q 219.58 272.42 219.61 272.69
  A 0.48 0.47 0.3 0 0 220.07 273.15
  L 226.61 273.17
  A 0.76 0.76 0.0 0 0 227.37 272.41
  L 227.37 272.10
  A 0.91 0.91 0.0 0 0 226.46 271.19
  L 222.44 271.19
  A 1.11 1.11 0.0 0 1 221.33 270.08
  L 221.33 269.79
  A 1.31 1.31 0.0 0 1 222.77 268.49
  Q 226.60 268.88 226.51 267.58
  Q 226.59 266.31 222.76 266.73
  A 1.31 1.31 0.0 0 1 221.31 265.45
  L 221.31 265.16
  A 1.11 1.11 0.0 0 1 222.41 264.04
  L 226.43 264.00
  A 0.91 0.91 0.0 0 0 227.33 263.08
  L 227.32 262.77
  A 0.76 0.76 0.0 0 0 226.56 262.02
  L 220.02 262.10
  A 0.48 0.47 -0.9 0 0 219.56 262.57
  Q 219.53 262.83 219.55 267.63
  Z
  M 234.03 273.15
  A 0.91 0.91 0.0 0 0 234.94 272.24
  L 234.94 270.36
  A 1.20 1.20 0.0 0 1 237.09 269.62
  Q 239.17 272.31 240.24 273.20
  A 0.74 0.74 0.0 0 0 241.32 272.21
  L 239.56 269.75
  A 0.79 0.78 -29.3 0 1 239.90 268.57
  Q 241.00 268.12 241.27 266.97
  Q 242.16 263.21 238.73 262.00
  Q 238.65 261.97 233.57 262.12
  A 0.62 0.62 0.0 0 0 232.97 262.75
  L 233.01 272.45
  A 0.70 0.69 89.8 0 0 233.70 273.15
  L 234.03 273.15
  Z
  M 253.82 266.72
  Q 252.53 266.48 250.34 266.63
  A 1.15 1.15 0.0 0 1 249.11 265.51
  L 249.10 265.34
  A 1.13 1.13 0.0 0 1 250.22 264.17
  L 254.11 264.15
  A 0.70 0.69 90.0 0 0 254.80 263.45
  L 254.80 262.96
  A 0.88 0.88 0.0 0 0 253.92 262.08
  L 248.08 262.08
  A 0.76 0.75 90.0 0 0 247.33 262.84
  L 247.33 272.45
  A 0.79 0.79 0.0 0 0 248.12 273.24
  L 248.56 273.24
  A 0.86 0.85 -0.0 0 0 249.42 272.39
  L 249.42 269.17
  A 0.66 0.66 0.0 0 1 250.14 268.51
  Q 252.41 268.71 253.83 268.43
  A 0.87 0.87 0.0 0 0 253.82 266.72
  Z
  M 265.9190 261.9204
  A 5.73 5.45 -84.1 0 0 259.9089 267.0598
  A 5.73 5.45 -84.1 0 0 264.7410 273.3196
  A 5.73 5.45 -84.1 0 0 270.7511 268.1802
  A 5.73 5.45 -84.1 0 0 265.9190 261.9204
  Z
  M 277.55 273.16
  A 0.91 0.91 0.0 0 0 278.46 272.25
  L 278.46 270.38
  A 1.20 1.20 0.0 0 1 280.61 269.65
  Q 282.67 272.34 283.73 273.23
  A 0.74 0.73 2.5 0 0 284.81 272.25
  L 283.07 269.79
  A 0.78 0.78 0.0 0 1 283.41 268.62
  Q 284.51 268.17 284.78 267.03
  Q 285.68 263.28 282.27 262.07
  Q 282.19 262.04 277.13 262.17
  A 0.62 0.62 0.0 0 0 276.53 262.79
  L 276.53 272.46
  A 0.70 0.69 -90.0 0 0 277.22 273.16
  L 277.55 273.16
  Z
  M 312.53 270.82
  Q 313.82 270.81 314.17 270.83
  A 1.41 1.40 71.9 0 1 315.18 271.35
  L 316.61 273.09
  A 0.67 0.67 0.0 0 0 317.75 272.42
  Q 315.33 266.14 313.67 262.61
  Q 313.33 261.88 312.55 261.88
  Q 311.69 261.88 311.35 262.61
  Q 309.71 266.15 307.31 272.44
  A 0.67 0.67 0.0 0 0 308.45 273.11
  L 309.87 271.36
  A 1.41 1.40 -72.1 0 1 310.88 270.84
  Q 311.23 270.82 312.53 270.82
  Z
  M 338.30 267.77
  C 338.40 271.44 341.13 273.71 344.77 273.14
  Q 347.11 272.77 347.49 270.99
  A 0.53 0.53 0.0 0 0 346.91 270.35
  Q 345.71 270.47 345.22 270.83
  A 2.85 2.84 43.7 0 1 342.01 270.89
  Q 340.27 269.75 340.21 267.72
  Q 340.16 265.69 341.84 264.45
  A 2.85 2.84 -46.8 0 1 345.05 264.35
  Q 345.56 264.68 346.76 264.74
  A 0.53 0.53 0.0 0 0 347.31 264.07
  Q 346.83 262.31 344.47 262.07
  C 340.81 261.69 338.20 264.09 338.30 267.77
  Z
  M 353.32 267.56
  Q 353.35 272.33 353.37 272.60
  A 0.47 0.46 0.3 0 0 353.84 273.06
  L 360.34 273.08
  A 0.76 0.76 0.0 0 0 361.10 272.32
  L 361.10 272.01
  A 0.91 0.91 0.0 0 0 360.19 271.11
  L 356.19 271.11
  A 1.10 1.10 0.0 0 1 355.09 270.00
  L 355.09 269.72
  A 1.30 1.30 0.0 0 1 356.52 268.42
  Q 360.33 268.81 360.25 267.52
  Q 360.32 266.26 356.51 266.68
  A 1.30 1.30 0.0 0 1 355.07 265.40
  L 355.07 265.11
  A 1.10 1.10 0.0 0 1 356.16 263.99
  L 360.16 263.96
  A 0.91 0.91 0.0 0 0 361.06 263.04
  L 361.05 262.73
  A 0.76 0.76 0.0 0 0 360.29 261.99
  L 353.79 262.07
  A 0.47 0.46 -0.9 0 0 353.33 262.53
  Q 353.30 262.80 353.32 267.56
  Z
  M 47.94 267.85
  A 1.13 1.13 0.0 0 0 46.81 266.72
  L 22.59 266.72
  A 1.13 1.13 0.0 0 0 21.46 267.85
  L 21.46 268.09
  A 1.13 1.13 0.0 0 0 22.59 269.22
  L 46.81 269.22
  A 1.13 1.13 0.0 0 0 47.94 268.09
  L 47.94 267.85
  Z
  M 392.5596 267.7410
  A 1.03 1.03 0.0 0 0 391.5278 266.7128
  L 371.8678 266.7472
  A 1.03 1.03 0.0 0 0 370.8396 267.7790
  L 370.8404 268.2590
  A 1.03 1.03 0.0 0 0 371.8722 269.2872
  L 391.5322 269.2528
  A 1.03 1.03 0.0 0 0 392.5604 268.2210
  L 392.5596 267.7410
  Z"
/>
<path fill="#0A2540" d="
  M 247.33 83.03
  A 0.32 0.31 -21.3 0 0 246.77 82.79
  C 229.08 105.86 207.69 127.46 181.29 140.04
  Q 166.23 147.22 147.77 148.09
  A 0.15 0.13 -20.8 0 1 147.67 148.05
  L 147.21 147.61
  A 0.27 0.27 0.0 0 1 147.36 147.14
  C 168.71 143.92 186.60 129.85 201.14 114.88
  Q 228.54 86.68 246.11 50.73
  A 0.26 0.25 -75.3 0 0 245.90 50.36
  L 231.10 49.35
  A 0.21 0.21 0.0 0 1 230.98 48.97
  L 271.56 15.63
  A 0.22 0.22 0.0 0 1 271.92 15.78
  L 277.30 65.13
  A 0.48 0.48 0.0 0 1 276.54 65.57
  L 265.03 57.13
  A 0.43 0.43 0.0 0 0 264.34 57.48
  Q 264.46 111.49 264.48 113.06
  Q 264.68 130.62 263.11 138.07
  C 257.30 165.58 236.55 187.60 208.02 190.99
  Q 192.83 192.79 177.53 190.47
  Q 151.39 186.49 136.65 166.38
  Q 124.04 149.18 124.05 126.73
  Q 124.06 96.09 123.95 83.33
  C 123.90 77.80 123.61 74.21 127.97 71.51
  C 134.66 67.36 142.18 71.98 142.16 79.78
  Q 142.07 119.90 142.21 131.98
  Q 142.32 141.22 147.65 151.14
  C 153.36 161.76 163.41 169.74 175.76 171.87
  Q 196.68 175.49 213.42 171.89
  C 229.60 168.41 241.67 153.29 245.80 137.80
  Q 247.32 132.09 247.28 118.63
  Q 247.19 89.44 247.18 86.50
  Q 247.18 83.88 247.33 83.03
  Z"
/>
<path fill="#0A2540" d="
  M 86.41 247.06
  A 0.79 0.78 0.0 0 1 85.62 246.28
  L 85.62 206.39
  A 0.42 0.42 0.0 0 1 86.05 205.97
  Q 88.99 206.08 112.99 206.10
  C 124.15 206.11 130.83 216.00 125.96 226.38
  C 123.83 230.93 117.45 233.42 112.73 233.51
  Q 106.45 233.62 95.38 233.55
  A 0.54 0.54 0.0 0 0 94.83 234.09
  L 94.83 246.14
  A 0.92 0.92 0.0 0 1 93.91 247.06
  L 86.41 247.06
  Z
  M 94.85 214.69
  L 94.89 225.07
  A 0.57 0.57 0.0 0 0 95.46 225.64
  L 112.22 225.58
  A 6.27 5.53 -0.2 0 0 118.47 220.03
  L 118.47 219.57
  A 6.27 5.53 -0.2 0 0 112.18 214.06
  L 95.42 214.12
  A 0.57 0.57 0.0 0 0 94.85 214.69
  Z"
/>
<path fill="#0A2540" d="
  M 178.35 206.13
  Q 180.37 206.14 181.42 206.17
  A 1.04 1.03 -9.2 0 1 182.37 206.85
  L 192.47 234.17
  A 0.48 0.48 0.0 0 0 193.37 234.19
  L 204.52 206.51
  A 0.44 0.44 0.0 0 1 204.93 206.23
  L 214.50 206.23
  A 0.14 0.14 0.0 0 1 214.63 206.42
  L 197.55 246.69
  A 0.76 0.75 10.9 0 1 196.85 247.16
  L 189.77 247.16
  A 1.78 1.77 -10.6 0 1 188.11 246.03
  Q 185.82 240.21 178.61 222.01
  Q 178.52 221.79 178.25 221.78
  Q 177.99 221.78 177.89 222.00
  Q 170.45 240.11 168.09 245.90
  A 1.78 1.77 11.3 0 1 166.42 247.01
  L 159.34 246.92
  A 0.76 0.75 -10.2 0 1 158.64 246.45
  L 142.07 205.96
  A 0.14 0.14 0.0 0 1 142.20 205.78
  L 151.77 205.90
  A 0.44 0.44 0.0 0 1 152.18 206.18
  L 162.98 234.00
  A 0.48 0.48 0.0 0 0 163.88 233.99
  L 174.32 206.80
  A 1.04 1.03 9.9 0 1 175.28 206.13
  Q 176.33 206.11 178.35 206.13
  Z"
/>
<path fill="#0A2540" d="
  M 348.68 206.44
  A 0.40 0.40 0.0 0 1 349.08 206.04
  L 371.11 206.04
  A 20.43 19.62 -0.0 0 1 391.54 225.66
  L 391.54 227.38
  A 20.43 19.62 -0.0 0 1 371.11 247.00
  L 349.08 247.00
  A 0.40 0.40 0.0 0 1 348.68 246.60
  L 348.68 206.44
  Z
  M 357.61 214.75
  L 357.45 238.27
  A 0.69 0.69 0.0 0 0 358.13 238.97
  L 369.89 239.05
  A 12.35 11.40 0.4 0 0 382.32 227.74
  L 382.34 225.64
  A 12.35 11.40 0.4 0 0 370.07 214.15
  L 358.31 214.07
  A 0.69 0.69 0.0 0 0 357.61 214.75
  Z"
/>
<path fill="#0A2540" d="
  M 43.94 239.32
  C 51.16 239.32 56.47 234.80 56.55 227.24
  Q 56.66 216.71 56.59 206.72
  A 0.72 0.71 -90.0 0 1 57.30 206.00
  L 64.93 206.00
  A 0.79 0.79 0.0 0 1 65.72 206.77
  Q 65.79 210.00 65.82 223.22
  Q 65.85 232.70 63.94 236.41
  C 59.89 244.31 52.60 247.39 43.93 247.38
  C 35.27 247.37 27.99 244.27 23.95 236.37
  Q 22.05 232.65 22.11 223.17
  Q 22.17 209.95 22.24 206.72
  A 0.79 0.79 0.0 0 1 23.04 205.95
  L 30.67 205.97
  A 0.72 0.71 -89.9 0 1 31.37 206.69
  Q 31.28 216.68 31.37 227.21
  C 31.43 234.77 36.73 239.31 43.94 239.32
  Z"
/>
<path fill="#0A2540" d="
  M 248.41 206.15
  Q 250.48 206.15 252.59 206.04
  A 1.32 1.32 0.0 0 1 253.84 206.76
  L 274.08 246.87
  A 0.12 0.11 75.9 0 1 273.98 247.04
  L 264.38 247.04
  A 0.47 0.47 0.0 0 1 263.96 246.78
  Q 257.06 233.11 248.87 216.95
  Q 248.82 216.86 248.67 216.77
  Q 248.55 216.70 248.41 216.70
  Q 248.26 216.70 248.14 216.77
  Q 247.99 216.86 247.94 216.95
  Q 239.74 233.10 232.83 246.77
  A 0.47 0.47 0.0 0 1 232.41 247.03
  L 222.81 247.02
  A 0.12 0.11 -75.8 0 1 222.71 246.85
  L 242.98 206.76
  A 1.32 1.32 0.0 0 1 244.23 206.04
  Q 246.34 206.15 248.41 206.15
  Z"
/>
<path fill="#0A2540" d="
  M 332.73 246.79
  A 0.10 0.10 0.0 0 1 332.65 246.95
  L 322.93 246.95
  A 0.57 0.55 71.3 0 1 322.48 246.72
  L 313.15 233.50
  A 0.91 0.90 72.5 0 0 312.41 233.11
  L 299.26 233.11
  A 0.71 0.70 -90.0 0 0 298.56 233.82
  L 298.56 246.57
  A 0.39 0.39 0.0 0 1 298.17 246.96
  L 290.06 246.96
  A 0.43 0.42 90.0 0 1 289.64 246.53
  L 289.64 206.46
  A 0.48 0.47 -88.9 0 1 290.13 205.98
  Q 303.00 206.26 314.76 206.00
  C 324.17 205.78 331.58 210.44 331.24 220.44
  C 331.05 226.01 327.99 229.76 322.94 231.75
  A 0.55 0.54 -28.5 0 0 322.69 232.57
  L 332.73 246.79
  Z
  M 298.52 214.81
  L 298.56 224.89
  A 0.70 0.70 0.0 0 0 299.26 225.59
  L 315.93 225.53
  A 6.37 5.65 -0.2 0 0 322.28 219.86
  L 322.28 219.68
  A 6.37 5.65 -0.2 0 0 315.89 214.05
  L 299.22 214.11
  A 0.70 0.70 0.0 0 0 298.52 214.81
  Z"
/>
<path fill="#000000" d="
  M 94.85 214.69
  A 0.57 0.57 0.0 0 1 95.42 214.12
  L 112.18 214.06
  A 6.27 5.53 -0.2 0 1 118.47 219.57
  L 118.47 220.03
  A 6.27 5.53 -0.2 0 1 112.22 225.58
  L 95.46 225.64
  A 0.57 0.57 0.0 0 1 94.89 225.07
  L 94.85 214.69
  Z"
/>
<path fill="#000000" d="
  M 298.52 214.81
  A 0.70 0.70 0.0 0 1 299.22 214.11
  L 315.89 214.05
  A 6.37 5.65 -0.2 0 1 322.28 219.68
  L 322.28 219.86
  A 6.37 5.65 -0.2 0 1 315.93 225.53
  L 299.26 225.59
  A 0.70 0.70 0.0 0 1 298.56 224.89
  L 298.52 214.81
  Z"
/>
<path fill="#000000" d="
  M 357.61 214.75
  A 0.69 0.69 0.0 0 1 358.31 214.07
  L 370.07 214.15
  A 12.35 11.40 0.4 0 1 382.34 225.64
  L 382.32 227.74
  A 12.35 11.40 0.4 0 1 369.89 239.05
  L 358.13 238.97
  A 0.69 0.69 0.0 0 1 357.45 238.27
  L 357.61 214.75
  Z"
/>
<path fill="#0A2540" d="
  M 82.86 267.50
  Q 82.94 269.93 82.78 272.35
  A 0.82 0.82 0.0 0 1 81.97 273.12
  L 81.59 273.12
  A 0.61 0.61 0.0 0 1 80.98 272.51
  L 80.98 268.95
  A 0.56 0.55 -1.3 0 0 80.39 268.40
  Q 79.45 268.44 78.46 268.44
  Q 77.47 268.44 76.53 268.40
  A 0.56 0.55 1.3 0 0 75.94 268.95
  L 75.94 272.51
  A 0.61 0.61 0.0 0 1 75.33 273.12
  L 74.95 273.12
  A 0.82 0.82 0.0 0 1 74.14 272.35
  Q 73.98 269.93 74.06 267.51
  Q 73.98 265.08 74.13 262.66
  A 0.82 0.82 0.0 0 1 74.95 261.89
  L 75.33 261.89
  A 0.61 0.61 0.0 0 1 75.94 262.50
  L 75.94 266.06
  A 0.56 0.55 -1.3 0 0 76.53 266.61
  Q 77.47 266.57 78.46 266.56
  Q 79.45 266.56 80.39 266.61
  A 0.56 0.55 1.3 0 0 80.98 266.06
  L 80.98 262.50
  A 0.61 0.61 0.0 0 1 81.59 261.89
  L 81.97 261.89
  A 0.82 0.82 0.0 0 1 82.78 262.65
  Q 82.94 265.08 82.86 267.50
  Z"
/>
<path fill="#0A2540" d="
  M 154.60 270.93
  Q 153.29 270.93 152.93 270.95
  A 1.43 1.43 0.0 0 0 151.90 271.48
  L 150.46 273.26
  A 0.68 0.68 0.0 0 1 149.29 272.58
  Q 151.73 266.18 153.40 262.58
  Q 153.75 261.84 154.54 261.84
  Q 155.41 261.84 155.76 262.58
  Q 157.45 266.17 159.91 272.56
  A 0.68 0.68 0.0 0 1 158.75 273.24
  L 157.30 271.47
  A 1.43 1.43 0.0 0 0 156.27 270.95
  Q 155.91 270.93 154.60 270.93
  Z
  M 153.58 268.96
  L 155.56 268.96
  A 0.31 0.31 0.0 0 0 155.87 268.65
  L 155.87 268.45
  A 3.25 1.30 90.0 0 0 154.57 265.20
  A 3.25 1.30 90.0 0 0 153.27 268.45
  L 153.27 268.65
  A 0.31 0.31 0.0 0 0 153.58 268.96
  Z"
/>
<path fill="#0A2540" d="
  M 169.57 267.96
  Q 169.04 267.19 168.52 266.44
  A 0.42 0.42 0.0 0 0 167.75 266.68
  L 167.75 272.37
  A 0.84 0.84 0.0 0 1 166.91 273.21
  L 166.48 273.21
  A 0.72 0.71 -90.0 0 1 165.77 272.49
  L 165.77 262.77
  A 1.00 1.00 0.0 0 1 167.49 262.08
  Q 168.28 262.91 171.14 267.13
  Q 171.66 267.90 172.19 268.65
  A 0.42 0.42 0.0 0 0 172.95 268.41
  L 172.95 262.72
  A 0.84 0.84 0.0 0 1 173.79 261.88
  L 174.22 261.88
  A 0.72 0.71 90.0 0 1 174.93 262.60
  L 174.93 272.32
  A 1.00 1.00 0.0 0 1 173.22 273.01
  Q 172.42 272.18 169.57 267.96
  Z"
/>
<path fill="#0A2540" d="
  M 296.34 269.74
  C 295.67 269.74 294.92 268.12 294.02 266.62
  A 0.50 0.50 0.0 0 0 293.09 266.88
  L 293.10 272.10
  A 1.05 1.04 86.6 0 1 292.18 273.14
  L 292.12 273.15
  A 0.90 0.90 0.0 0 1 291.13 272.27
  Q 291.01 264.53 291.18 262.75
  Q 291.22 262.36 291.40 262.22
  A 1.36 1.36 0.0 0 1 293.42 262.54
  C 294.66 264.49 295.73 266.53 296.35 266.53
  C 296.96 266.53 298.04 264.49 299.29 262.55
  A 1.36 1.36 0.0 0 1 301.30 262.23
  Q 301.48 262.37 301.52 262.76
  Q 301.69 264.54 301.55 272.28
  A 0.90 0.90 0.0 0 1 300.55 273.16
  L 300.49 273.15
  A 1.05 1.04 -86.4 0 1 299.58 272.11
  L 299.60 266.89
  A 0.50 0.50 0.0 0 0 298.67 266.63
  C 297.77 268.12 297.01 269.74 296.34 269.74
  Z"
/>
<path fill="#0A2540" d="
  M 328.73 267.14
  Q 329.26 267.88 329.77 268.61
  A 0.41 0.41 0.0 0 0 330.52 268.38
  L 330.48 262.80
  A 0.82 0.82 0.0 0 1 331.30 261.97
  L 331.72 261.96
  A 0.71 0.70 89.6 0 1 332.42 262.66
  L 332.49 272.20
  A 0.98 0.98 0.0 0 1 330.81 272.89
  Q 330.03 272.08 327.19 267.96
  Q 326.67 267.21 326.16 266.48
  A 0.41 0.41 0.0 0 0 325.41 266.72
  L 325.45 272.30
  A 0.82 0.82 0.0 0 1 324.63 273.13
  L 324.21 273.13
  A 0.71 0.70 89.6 0 1 323.51 272.43
  L 323.44 262.90
  A 0.98 0.98 0.0 0 1 325.12 262.21
  Q 325.90 263.01 328.73 267.14
  Z"
/>
<path fill="#0A2540" d="
  M 61.79 270.03
  L 61.77 272.22
  A 0.92 0.92 0.0 0 1 60.84 273.12
  L 60.52 273.12
  A 0.74 0.73 0.6 0 1 59.79 272.38
  L 59.89 262.79
  A 0.70 0.69 -2.6 0 1 60.51 262.11
  Q 64.26 261.75 65.83 262.39
  C 70.43 264.26 67.62 271.03 62.59 269.46
  A 0.61 0.61 0.0 0 0 61.79 270.03
  Z
  M 61.73 264.78
  L 61.81 267.10
  A 0.82 0.82 0.0 0 0 62.66 267.89
  L 63.95 267.85
  A 2.49 1.87 -2.0 0 0 66.37 265.89
  L 66.36 265.67
  A 2.49 1.87 -2.0 0 0 63.81 263.89
  L 62.52 263.93
  A 0.82 0.82 0.0 0 0 61.73 264.78
  Z"
/>
<path fill="#0A2540" d="
  M 93.20 266.23
  C 93.33 266.24 93.39 266.23 93.46 266.14
  Q 95.77 262.87 95.96 262.61
  A 1.31 1.31 0.0 0 1 97.30 262.09
  L 97.54 262.16
  A 0.58 0.58 0.0 0 1 97.87 263.03
  L 94.56 268.08
  A 2.84 2.67 -24.8 0 0 94.18 269.02
  Q 94.16 269.15 93.90 272.68
  Q 93.85 273.40 93.03 273.38
  Q 92.21 273.36 92.19 272.64
  Q 92.10 269.10 92.09 268.97
  A 2.84 2.67 27.5 0 0 91.75 268.01
  L 88.68 262.81
  A 0.58 0.58 0.0 0 1 89.05 261.96
  L 89.30 261.90
  A 1.31 1.31 0.0 0 1 90.61 262.48
  Q 90.79 262.75 92.95 266.13
  C 93.01 266.22 93.07 266.23 93.20 266.23
  Z"
/>
<path fill="#0A2540" d="
  M 106.78 263.98
  A 1.03 1.03 0.0 0 0 105.90 265.70
  Q 106.28 266.12 109.66 266.97
  A 1.80 1.80 0.0 0 1 110.58 267.54
  Q 112.43 269.69 110.80 271.92
  A 2.34 2.29 4.9 0 1 109.94 272.63
  Q 106.39 274.32 103.55 271.71
  Q 103.15 271.35 103.32 270.80
  A 0.85 0.78 -66.0 0 1 104.49 270.29
  Q 105.63 270.97 106.97 271.31
  A 2.01 2.01 0.0 0 0 109.22 270.38
  L 109.24 270.33
  A 1.23 1.22 -66.4 0 0 108.54 268.54
  C 106.50 267.91 103.85 268.16 103.46 265.27
  C 102.98 261.73 109.00 260.92 110.74 263.04
  A 1.11 0.94 83.6 0 1 109.61 264.74
  Q 108.90 264.22 106.78 263.98
  Z"
/>
<rect fill="#0A2540" x="-0.94" y="-5.68" transform="translate(118.53,267.61) rotate(0.1)" width="1.88" height="11.36" rx="0.91"/>
<path fill="#0A2540" d="
  M 136.38 267.62
  A 5.58 5.58 0.0 0 1 130.80 273.20
  A 5.58 5.58 0.0 0 1 125.22 267.62
  A 5.58 5.58 0.0 0 1 130.80 262.04
  A 5.58 5.58 0.0 0 1 136.38 267.62
  Z
  M 130.9959 263.8625
  A 3.71 3.46 -87.9 0 0 127.4023 267.4432
  A 3.71 3.46 -87.9 0 0 130.7241 271.2775
  A 3.71 3.46 -87.9 0 0 134.3177 267.6968
  A 3.71 3.46 -87.9 0 0 130.9959 263.8625
  Z"
/>
<path fill="#0A2540" d="
  M 181.54 262.83
  A 0.76 0.76 0.0 0 1 182.31 262.07
  L 185.68 262.10
  A 5.45 5.41 0.4 0 1 191.09 267.54
  L 191.09 267.80
  A 5.45 5.41 0.4 0 1 185.60 273.18
  L 182.23 273.15
  A 0.76 0.76 0.0 0 1 181.48 272.39
  L 181.54 262.83
  Z
  M 183.59 264.66
  L 183.47 270.38
  A 0.75 0.75 0.0 0 0 184.20 271.15
  L 185.65 271.18
  A 3.40 3.39 1.2 0 0 189.12 267.86
  L 189.13 267.42
  A 3.40 3.39 1.2 0 0 185.81 263.96
  L 184.36 263.93
  A 0.75 0.75 0.0 0 0 183.59 264.66
  Z"
/>
<path fill="#0A2540" d="
  M 207.40 270.21
  L 207.40 272.43
  A 0.93 0.93 0.0 0 1 206.47 273.36
  L 206.14 273.36
  A 0.75 0.74 -0.0 0 1 205.39 272.62
  L 205.39 262.88
  A 0.71 0.70 -3.2 0 1 206.02 262.18
  Q 209.82 261.77 211.42 262.41
  C 216.11 264.26 213.33 271.16 208.20 269.62
  A 0.62 0.62 0.0 0 0 207.40 270.21
  Z
  M 207.41 264.73
  L 207.35 267.09
  A 0.84 0.84 0.0 0 0 208.17 267.95
  L 209.05 267.98
  A 2.60 1.88 1.5 0 0 211.70 266.17
  L 211.70 265.89
  A 2.60 1.88 1.5 0 0 209.15 263.94
  L 208.27 263.92
  A 0.84 0.84 0.0 0 0 207.41 264.73
  Z"
/>
<path fill="#0A2540" d="
  M 226.51 267.58
  Q 226.60 268.88 222.77 268.49
  A 1.31 1.31 0.0 0 0 221.33 269.79
  L 221.33 270.08
  A 1.11 1.11 0.0 0 0 222.44 271.19
  L 226.46 271.19
  A 0.91 0.91 0.0 0 1 227.37 272.10
  L 227.37 272.41
  A 0.76 0.76 0.0 0 1 226.61 273.17
  L 220.07 273.15
  A 0.48 0.47 0.3 0 1 219.61 272.69
  Q 219.58 272.42 219.55 267.63
  Q 219.53 262.83 219.56 262.57
  A 0.48 0.47 -0.9 0 1 220.02 262.10
  L 226.56 262.02
  A 0.76 0.76 0.0 0 1 227.32 262.77
  L 227.33 263.08
  A 0.91 0.91 0.0 0 1 226.43 264.00
  L 222.41 264.04
  A 1.11 1.11 0.0 0 0 221.31 265.16
  L 221.31 265.45
  A 1.31 1.31 0.0 0 0 222.76 266.73
  Q 226.59 266.31 226.51 267.58
  Z"
/>
<path fill="#0A2540" d="
  M 234.03 273.15
  L 233.70 273.15
  A 0.70 0.69 89.8 0 1 233.01 272.45
  L 232.97 262.75
  A 0.62 0.62 0.0 0 1 233.57 262.12
  Q 238.65 261.97 238.73 262.00
  Q 242.16 263.21 241.27 266.97
  Q 241.00 268.12 239.90 268.57
  A 0.79 0.78 -29.3 0 0 239.56 269.75
  L 241.32 272.21
  A 0.74 0.74 0.0 0 1 240.24 273.20
  Q 239.17 272.31 237.09 269.62
  A 1.20 1.20 0.0 0 0 234.94 270.36
  L 234.94 272.24
  A 0.91 0.91 0.0 0 1 234.03 273.15
  Z
  M 239.4120 265.3127
  A 1.34 1.34 0.0 0 0 238.0442 264.0011
  L 236.2046 264.0396
  A 1.34 1.34 0.0 0 0 234.8930 265.4074
  L 234.9080 266.1273
  A 1.34 1.34 0.0 0 0 236.2758 267.4389
  L 238.1154 267.4004
  A 1.34 1.34 0.0 0 0 239.4270 266.0326
  L 239.4120 265.3127
  Z"
/>
<path fill="#0A2540" d="
  M 253.82 266.72
  A 0.87 0.87 0.0 0 1 253.83 268.43
  Q 252.41 268.71 250.14 268.51
  A 0.66 0.66 0.0 0 0 249.42 269.17
  L 249.42 272.39
  A 0.86 0.85 -0.0 0 1 248.56 273.24
  L 248.12 273.24
  A 0.79 0.79 0.0 0 1 247.33 272.45
  L 247.33 262.84
  A 0.76 0.75 -90.0 0 1 248.08 262.08
  L 253.92 262.08
  A 0.88 0.88 0.0 0 1 254.80 262.96
  L 254.80 263.45
  A 0.70 0.69 -90.0 0 1 254.11 264.15
  L 250.22 264.17
  A 1.13 1.13 0.0 0 0 249.10 265.34
  L 249.11 265.51
  A 1.15 1.15 0.0 0 0 250.34 266.63
  Q 252.53 266.48 253.82 266.72
  Z"
/>
<path fill="#0A2540" d="
  M 265.9190 261.9204
  A 5.73 5.45 -84.1 0 1 270.7511 268.1802
  A 5.73 5.45 -84.1 0 1 264.7410 273.3196
  A 5.73 5.45 -84.1 0 1 259.9089 267.0598
  A 5.73 5.45 -84.1 0 1 265.9190 261.9204
  Z
  M 265.2188 263.8423
  A 3.76 3.50 -92.0 0 0 261.8521 267.7221
  A 3.76 3.50 -92.0 0 0 265.4812 271.3577
  A 3.76 3.50 -92.0 0 0 268.8479 267.4779
  A 3.76 3.50 -92.0 0 0 265.2188 263.8423
  Z"
/>
<path fill="#0A2540" d="
  M 276.53 272.46
  L 276.53 262.79
  A 0.62 0.62 0.0 0 1 277.13 262.17
  Q 282.19 262.04 282.27 262.07
  Q 285.68 263.28 284.78 267.03
  Q 284.51 268.17 283.41 268.62
  A 0.78 0.78 0.0 0 0 283.07 269.79
  L 284.81 272.25
  A 0.74 0.73 2.5 0 1 283.73 273.23
  Q 282.67 272.34 280.61 269.65
  A 1.20 1.20 0.0 0 0 278.46 270.38
  L 278.46 272.25
  A 0.91 0.91 0.0 0 1 277.55 273.16
  L 277.22 273.16
  A 0.70 0.69 -90.0 0 1 276.53 272.46
  Z
  M 282.7742 265.2802
  A 1.39 1.39 0.0 0 0 281.3042 263.9751
  L 279.6870 264.0711
  A 1.39 1.39 0.0 0 0 278.3819 265.5411
  L 278.4258 266.2798
  A 1.39 1.39 0.0 0 0 279.8958 267.5849
  L 281.5130 267.4889
  A 1.39 1.39 0.0 0 0 282.8181 266.0189
  L 282.7742 265.2802
  Z"
/>
<path fill="#0A2540" d="
  M 312.53 270.82
  Q 311.23 270.82 310.88 270.84
  A 1.41 1.40 -72.1 0 0 309.87 271.36
  L 308.45 273.11
  A 0.67 0.67 0.0 0 1 307.31 272.44
  Q 309.71 266.15 311.35 262.61
  Q 311.69 261.88 312.55 261.88
  Q 313.33 261.88 313.67 262.61
  Q 315.33 266.14 317.75 272.42
  A 0.67 0.67 0.0 0 1 316.61 273.09
  L 315.18 271.35
  A 1.41 1.40 71.9 0 0 314.17 270.83
  Q 313.82 270.81 312.53 270.82
  Z
  M 312.14 265.29
  L 310.92 268.17
  A 0.69 0.68 -76.5 0 0 311.50 269.12
  L 313.49 269.25
  A 0.58 0.58 0.0 0 0 314.07 268.47
  L 312.90 265.31
  A 0.41 0.41 0.0 0 0 312.14 265.29
  Z"
/>
<path fill="#0A2540" d="
  M 340.21 267.72
  Q 340.27 269.75 342.01 270.89
  A 2.85 2.84 43.7 0 0 345.22 270.83
  Q 345.71 270.47 346.91 270.35
  A 0.53 0.53 0.0 0 1 347.49 270.99
  Q 347.11 272.77 344.77 273.14
  C 341.13 273.71 338.40 271.44 338.30 267.77
  C 338.20 264.09 340.81 261.69 344.47 262.07
  Q 346.83 262.31 347.31 264.07
  A 0.53 0.53 0.0 0 1 346.76 264.74
  Q 345.56 264.68 345.05 264.35
  A 2.85 2.84 -46.8 0 0 341.84 264.45
  Q 340.16 265.69 340.21 267.72
  Z"
/>
<path fill="#0A2540" d="
  M 353.32 267.56
  Q 353.30 262.80 353.33 262.53
  A 0.47 0.46 -0.9 0 1 353.79 262.07
  L 360.29 261.99
  A 0.76 0.76 0.0 0 1 361.05 262.73
  L 361.06 263.04
  A 0.91 0.91 0.0 0 1 360.16 263.96
  L 356.16 263.99
  A 1.10 1.10 0.0 0 0 355.07 265.11
  L 355.07 265.40
  A 1.30 1.30 0.0 0 0 356.51 266.68
  Q 360.32 266.26 360.25 267.52
  Q 360.33 268.81 356.52 268.42
  A 1.30 1.30 0.0 0 0 355.09 269.72
  L 355.09 270.00
  A 1.10 1.10 0.0 0 0 356.19 271.11
  L 360.19 271.11
  A 0.91 0.91 0.0 0 1 361.10 272.01
  L 361.10 272.32
  A 0.76 0.76 0.0 0 1 360.34 273.08
  L 353.84 273.06
  A 0.47 0.46 0.3 0 1 353.37 272.60
  Q 353.35 272.33 353.32 267.56
  Z"
/>
<ellipse fill="#000000" cx="0.00" cy="0.00" transform="translate(130.86,267.57) rotate(-87.9)" rx="3.71" ry="3.46"/>
<ellipse fill="#000000" cx="0.00" cy="0.00" transform="translate(265.35,267.60) rotate(-92.0)" rx="3.76" ry="3.50"/>
<path fill="#000000" d="
  M 61.73 264.78
  A 0.82 0.82 0.0 0 1 62.52 263.93
  L 63.81 263.89
  A 2.49 1.87 -2.0 0 1 66.36 265.67
  L 66.37 265.89
  A 2.49 1.87 -2.0 0 1 63.95 267.85
  L 62.66 267.89
  A 0.82 0.82 0.0 0 1 61.81 267.10
  L 61.73 264.78
  Z"
/>
<path fill="#000000" d="
  M 183.59 264.66
  A 0.75 0.75 0.0 0 1 184.36 263.93
  L 185.81 263.96
  A 3.40 3.39 1.2 0 1 189.13 267.42
  L 189.12 267.86
  A 3.40 3.39 1.2 0 1 185.65 271.18
  L 184.20 271.15
  A 0.75 0.75 0.0 0 1 183.47 270.38
  L 183.59 264.66
  Z"
/>
<path fill="#000000" d="
  M 207.41 264.73
  A 0.84 0.84 0.0 0 1 208.27 263.92
  L 209.15 263.94
  A 2.60 1.88 1.5 0 1 211.70 265.89
  L 211.70 266.17
  A 2.60 1.88 1.5 0 1 209.05 267.98
  L 208.17 267.95
  A 0.84 0.84 0.0 0 1 207.35 267.09
  L 207.41 264.73
  Z"
/>
<rect fill="#000000" x="-2.26" y="-1.70" transform="translate(237.16,265.72) rotate(-1.2)" width="4.52" height="3.40" rx="1.34"/>
<rect fill="#000000" x="-2.20" y="-1.76" transform="translate(280.60,265.78) rotate(-3.4)" width="4.40" height="3.52" rx="1.39"/>
<path fill="#000000" d="
  M 153.58 268.96
  A 0.31 0.31 0.0 0 1 153.27 268.65
  L 153.27 268.45
  A 3.25 1.30 -90.0 0 1 154.57 265.20
  A 3.25 1.30 -90.0 0 1 155.87 268.45
  L 155.87 268.65
  A 0.31 0.31 0.0 0 1 155.56 268.96
  L 153.58 268.96
  Z"
/>
<path fill="#000000" d="
  M 312.90 265.31
  L 314.07 268.47
  A 0.58 0.58 0.0 0 1 313.49 269.25
  L 311.50 269.12
  A 0.69 0.68 -76.5 0 1 310.92 268.17
  L 312.14 265.29
  A 0.41 0.41 0.0 0 1 312.90 265.31
  Z"
/>
<rect fill="#0A2540" x="21.46" y="266.72" width="26.48" height="2.50" rx="1.13"/>
<rect fill="#0A2540" x="-10.86" y="-1.27" transform="translate(381.70,268.00) rotate(-0.1)" width="21.72" height="2.54" rx="1.03"/>
</svg>
