<svg xmlns="http://www.w3.org/2000/svg" version="1.1" viewBox="0.00 0.00 817.00 575.00">
<g stroke-width="2.00" fill="none" stroke-linecap="butt">
<path stroke="#2b5c5d" vector-effect="non-scaling-stroke" d="
  M 300.47 303.39
  Q 298.92 303.92 298.45 303.07
  Q 297.81 301.93 297.31 301.04"
/>
<path stroke="#33696b" vector-effect="non-scaling-stroke" d="
  M 297.31 301.04
  C 295.68 295.67 293.31 290.47 292.36 285.18
  C 291.22 278.83 290.39 271.42 290.39 263.58
  Q 290.36 177.01 290.38 159.83
  Q 290.39 152.20 288.89 148.45
  Q 285.05 138.85 274.31 136.83
  C 266.97 135.45 258.80 138.46 254.82 145.06
  Q 251.85 150.01 251.86 154.50
  Q 252.00 208.19 251.82 246.20
  Q 251.71 268.92 253.46 280.71
  Q 256.04 297.99 262.72 314.33"
/>
<path stroke="#2b5c5d" vector-effect="non-scaling-stroke" d="
  M 262.72 314.33
  C 276.01 346.34 300.71 373.06 332.82 386.28
  Q 347.71 392.40 368.77 395.27
  Q 387.22 397.78 405.84 397.49"
/>
<path stroke="#275556" vector-effect="non-scaling-stroke" d="
  M 405.84 397.49
  Q 428.37 398.03 445.06 394.61
  C 482.12 387.00 514.07 362.46 533.15 330.17
  Q 552.28 297.79 553.85 262.25
  Q 554.10 256.55 553.91 233.82"
/>
<path stroke="#2b5c5d" vector-effect="non-scaling-stroke" d="
  M 553.91 233.82
  L 553.90 162.21"
/>
<path stroke="#275556" vector-effect="non-scaling-stroke" d="
  M 553.90 162.21
  L 553.37 118.76"
/>
<path stroke="#33696b" vector-effect="non-scaling-stroke" d="
  M 553.37 118.76
  Q 553.33 117.34 553.92 115.92
  A 0.51 0.51 0.0 0 1 554.70 115.71
  L 581.90 136.35
  A 0.30 0.30 0.0 0 0 582.38 136.08
  L 570.48 25.40
  A 0.47 0.47 0.0 0 0 569.72 25.08
  L 480.88 97.68
  A 0.50 0.50 0.0 0 0 481.08 98.55
  Q 484.90 99.43 489.25 99.50
  Q 498.65 99.65 513.10 100.86
  A 0.65 0.65 0.0 0 1 513.63 101.80
  C 510.94 107.21 507.84 111.91 504.51 118.07
  Q 484.75 154.56 459.39 186.88
  C 454.84 192.67 451.43 197.52 446.45 203.33
  Q 442.66 207.77 438.56 212.81
  Q 431.08 222.00 415.80 237.05
  Q 391.46 261.03 366.64 276.58
  Q 364.65 277.83 358.94 281.43
  Q 354.81 284.03 340.77 290.99
  Q 337.03 292.85 324.86 297.33
  Q 318.92 299.51 312.80 300.86
  Q 306.65 302.22 300.47 303.39"
/>
<path stroke="#59bbb5" vector-effect="non-scaling-stroke" d="
  M 553.37 118.76
  Q 550.09 122.82 547.38 127.12
  Q 543.31 133.58 541.77 135.73
  Q 533.17 147.81 524.75 160.01
  Q 523.12 162.37 520.61 165.36
  Q 518.37 168.03 516.34 170.62"
/>
<path stroke="#33696b" vector-effect="non-scaling-stroke" d="
  M 516.34 170.62
  C 511.96 175.34 507.59 181.26 503.95 185.21
  C 499.37 190.19 496.09 194.94 491.65 199.25
  Q 489.58 201.26 484.32 207.18
  Q 481.24 210.62 476.87 215.00
  C 452.25 239.62 425.02 262.04 395.02 278.51
  C 388.19 282.26 384.12 284.99 378.76 287.05
  C 373.24 289.17 365.95 292.95 359.48 294.88
  Q 356.39 295.80 349.52 298.22
  Q 345.75 299.55 339.33 300.81
  C 325.62 303.51 313.77 305.30 301.04 304.21"
/>
<path stroke="#5dc2bc" vector-effect="non-scaling-stroke" d="
  M 301.04 304.21
  L 300.47 303.39"
/>
<path stroke="#51ada7" vector-effect="non-scaling-stroke" d="
  M 553.90 162.21
  L 553.70 149.62
  A 0.21 0.21 0.0 0 0 553.34 149.47
  Q 550.83 151.91 549.74 153.37
  Q 536.82 170.76 524.49 184.33
  C 521.83 187.25 519.16 189.35 516.55 184.95"
/>
<path stroke="#275556" vector-effect="non-scaling-stroke" d="
  M 516.55 184.95
  L 516.34 170.62"
/>
<path stroke="#275556" vector-effect="non-scaling-stroke" d="
  M 515.17 276.04
  Q 510.69 300.35 496.33 320.23
  C 494.17 323.21 490.93 326.65 488.98 329.31
  Q 486.76 332.33 482.83 335.51
  Q 470.97 345.09 465.36 348.03
  Q 458.82 351.45 447.25 355.51
  Q 445.27 356.21 441.70 356.77
  Q 438.76 357.23 436.05 357.71"
/>
<path stroke="#2b5c5d" vector-effect="non-scaling-stroke" d="
  M 436.05 357.71
  Q 410.49 361.09 385.26 358.55
  C 369.31 356.94 356.96 355.03 345.12 350.63
  Q 339.39 348.51 327.90 340.74
  Q 321.71 336.57 318.07 332.38
  C 313.57 327.21 307.96 321.37 304.10 314.10
  Q 303.25 312.51 299.42 306.07
  A 1.33 1.33 0.0 0 1 299.99 304.19
  Q 300.19 304.09 301.04 304.21"
/>
<path stroke="#51ada7" vector-effect="non-scaling-stroke" d="
  M 553.91 233.82
  Q 534.71 238.18 518.55 249.47
  A 1.10 1.09 -18.1 0 0 518.09 250.36
  Q 518.21 258.75 518.02 266.64
  C 517.94 269.81 517.60 275.19 515.54 277.69
  A 0.17 0.17 0.0 0 1 515.24 277.56
  Q 515.34 276.73 515.17 276.04"
/>
<path stroke="#2b5c5d" vector-effect="non-scaling-stroke" d="
  M 515.17 276.04
  Q 516.50 268.11 516.50 262.25
  Q 516.50 223.72 516.55 184.95"
/>
<path stroke="#5dc2bc" vector-effect="non-scaling-stroke" d="
  M 297.31 301.04
  Q 290.12 299.70 283.12 299.71
  C 272.72 299.72 267.64 306.06 262.72 314.33"
/>
<path stroke="#51ada7" vector-effect="non-scaling-stroke" d="
  M 405.84 397.49
  L 436.05 357.71"
/>
<path stroke="#808185" vector-effect="non-scaling-stroke" d="
  M 93.41 498.66
  C 78.11 498.66 67.90 488.27 67.93 472.99
  Q 67.94 471.03 68.02 431.57
  A 0.61 0.61 0.0 0 0 67.41 430.96
  L 50.26 430.96
  A 0.60 0.60 0.0 0 0 49.66 431.56
  Q 49.58 442.63 49.60 465.79
  C 49.61 476.79 49.54 483.47 53.36 491.93
  C 60.56 507.93 76.62 514.85 93.41 514.86
  C 110.21 514.86 126.26 507.94 133.47 491.94
  C 137.29 483.48 137.22 476.80 137.24 465.80
  Q 137.26 442.64 137.18 431.57
  A 0.60 0.60 0.0 0 0 136.58 430.97
  L 119.43 430.97
  A 0.61 0.61 0.0 0 0 118.82 431.58
  Q 118.89 471.04 118.90 472.99
  C 118.93 488.28 108.72 498.66 93.41 498.66"
/>
<path stroke="#808185" vector-effect="non-scaling-stroke" d="
  M 360.63 462.35
  Q 361.05 462.36 361.20 462.77
  Q 369.93 485.62 380.66 512.85
  A 0.81 0.80 -10.7 0 0 381.41 513.36
  L 398.18 513.36
  A 0.80 0.79 10.9 0 0 398.92 512.87
  L 432.84 431.66
  A 0.36 0.36 0.0 0 0 432.51 431.17
  L 413.45 431.17
  A 0.75 0.74 11.2 0 0 412.76 431.63
  L 389.95 488.76
  A 0.38 0.38 0.0 0 1 389.24 488.75
  L 368.27 431.57
  A 0.85 0.85 0.0 0 0 367.46 431.02
  Q 364.09 431.08 360.70 431.07
  Q 357.31 431.06 353.94 430.99
  A 0.85 0.85 0.0 0 0 353.13 431.54
  L 331.90 488.62
  A 0.38 0.38 0.0 0 1 331.19 488.62
  L 308.64 431.39
  A 0.75 0.74 -10.9 0 0 307.95 430.93
  L 288.89 430.84
  A 0.36 0.36 0.0 0 0 288.56 431.33
  L 322.11 512.69
  A 0.80 0.79 -10.6 0 0 322.84 513.19
  L 339.61 513.26
  A 0.81 0.80 10.9 0 0 340.37 512.76
  Q 351.22 485.58 360.05 462.77
  Q 360.21 462.35 360.63 462.35"
/>
<path stroke="#808185" vector-effect="non-scaling-stroke" d="
  M 194.81 486.65
  Q 209.66 486.53 227.54 486.56
  Q 237.42 486.58 244.60 482.91
  Q 260.82 474.63 259.11 454.99
  C 258.17 444.19 250.39 435.90 239.92 432.69
  Q 234.57 431.05 227.26 431.03
  Q 186.54 430.96 176.35 430.99
  A 0.57 0.56 -90.0 0 0 175.79 431.56
  L 175.79 512.82
  A 0.45 0.44 90.0 0 0 176.23 513.27
  L 193.39 513.27
  A 0.65 0.64 90.0 0 0 194.03 512.62
  L 194.03 487.43
  A 0.78 0.78 0.0 0 1 194.81 486.65"
/>
<path stroke="#808185" vector-effect="non-scaling-stroke" d="
  M 500.64 451.33
  Q 501.04 451.33 501.35 451.96
  Q 511.95 473.60 531.30 512.81
  A 1.00 0.98 -12.9 0 0 532.19 513.36
  L 551.37 513.36
  A 0.28 0.28 0.0 0 0 551.62 512.96
  L 510.74 431.40
  A 0.72 0.71 -13.5 0 0 510.09 431.01
  Q 505.08 431.12 500.69 431.11
  Q 496.30 431.10 491.29 430.97
  A 0.72 0.71 13.8 0 0 490.63 431.36
  L 449.41 512.74
  A 0.28 0.28 0.0 0 0 449.66 513.14
  L 468.84 513.23
  A 1.00 0.98 13.1 0 0 469.73 512.68
  Q 489.25 473.55 499.94 451.95
  Q 500.25 451.32 500.64 451.33"
/>
<path stroke="#808185" vector-effect="non-scaling-stroke" d="
  M 601.21 512.55
  L 601.21 485.84
  A 0.68 0.67 -0.0 0 1 601.89 485.17
  L 628.80 485.17
  A 2.15 2.14 72.9 0 1 630.58 486.12
  L 648.24 512.61
  A 1.45 1.42 72.8 0 0 649.43 513.25
  L 669.57 513.25
  A 0.30 0.30 0.0 0 0 669.82 512.78
  L 649.23 483.17
  A 0.55 0.54 62.4 0 1 649.48 482.35
  Q 665.12 476.62 666.80 460.65
  C 668.71 442.57 655.25 431.18 637.93 431.13
  Q 597.72 431.00 583.65 431.04
  A 0.50 0.49 -90.0 0 0 583.16 431.54
  L 583.16 512.77
  A 0.47 0.47 0.0 0 0 583.63 513.24
  L 600.52 513.24
  A 0.69 0.69 0.0 0 0 601.21 512.55"
/>
<path stroke="#808185" vector-effect="non-scaling-stroke" d="
  M 701.21 431.57
  L 701.49 512.91
  A 0.37 0.37 0.0 0 0 701.86 513.28
  L 746.00 513.12
  A 40.89 39.00 -0.2 0 0 786.76 473.98
  L 786.74 469.90
  A 40.89 39.00 -0.2 0 0 745.72 431.04
  L 701.58 431.20
  A 0.37 0.37 0.0 0 0 701.21 431.57"
/>
<path stroke="#2b5c5d" vector-effect="non-scaling-stroke" d="
  M 228.80 546.85
  L 230.03 545.85
  A 1.00 1.00 0.0 0 0 230.02 544.29
  Q 225.69 540.82 220.60 542.09
  Q 216.12 543.21 215.87 547.53
  C 215.44 555.13 224.38 552.55 227.15 556.24
  A 2.35 2.09 -31.0 0 1 226.13 559.50
  C 223.02 561.04 220.44 559.66 217.91 557.70
  A 0.85 0.85 0.0 0 0 216.95 557.64
  Q 215.61 558.43 215.15 559.36
  A 0.94 0.92 37.7 0 0 215.29 560.38
  Q 217.19 562.52 219.48 563.03
  C 224.12 564.07 231.37 563.13 231.49 557.01
  C 231.61 551.06 226.01 550.68 221.17 549.57
  Q 219.87 549.28 219.70 548.34
  A 2.10 2.03 -9.8 0 1 221.45 545.95
  C 224.48 545.46 225.53 546.14 228.13 546.97
  A 0.72 0.71 34.4 0 0 228.80 546.85"
/>
<path stroke="#2b5c5d" vector-effect="non-scaling-stroke" d="
  M 269.1302 541.7453
  A 10.97 10.54 -94.6 0 0 259.5040 553.5253
  A 10.97 10.54 -94.6 0 0 270.8898 563.6147
  A 10.97 10.54 -94.6 0 0 280.5160 551.8347
  A 10.97 10.54 -94.6 0 0 269.1302 541.7453"
/>
<path stroke="#2b5c5d" vector-effect="non-scaling-stroke" d="
  M 679.14 552.92
  Q 679.22 558.30 684.05 561.65
  Q 690.50 566.13 697.26 561.23
  A 1.35 1.35 0.0 0 0 697.51 559.29
  L 696.74 558.34
  A 1.54 1.54 0.0 0 0 694.70 558.03
  C 691.00 560.49 686.69 560.58 684.35 556.43
  Q 683.87 555.57 683.83 552.85
  Q 683.79 550.12 684.25 549.25
  C 686.46 545.03 690.77 544.99 694.54 547.34
  A 1.54 1.54 0.0 0 0 696.57 546.97
  L 697.31 545.99
  A 1.35 1.35 0.0 0 0 697.00 544.06
  Q 690.10 539.37 683.79 544.04
  Q 679.06 547.54 679.14 552.92"
/>
<path stroke="#275556" vector-effect="non-scaling-stroke" d="
  M 157.65 552.63
  Q 157.64 557.10 157.55 562.13
  A 1.20 1.20 0.0 0 0 158.51 563.33
  Q 159.83 563.60 161.17 563.19
  A 1.01 0.99 -8.0 0 0 161.89 562.25
  L 162.05 555.72
  A 1.18 1.18 0.0 0 1 163.14 554.57
  Q 163.69 554.52 166.47 554.53
  Q 169.24 554.54 169.80 554.59
  A 1.18 1.18 0.0 0 1 170.88 555.75
  L 171.00 562.28
  A 1.01 0.99 8.3 0 0 171.71 563.22
  Q 173.05 563.64 174.37 563.38
  A 1.20 1.20 0.0 0 0 175.34 562.19
  Q 175.28 557.16 175.29 552.69
  Q 175.31 548.22 175.39 543.19
  A 1.20 1.20 0.0 0 0 174.43 541.99
  Q 173.11 541.72 171.77 542.13
  A 1.01 0.99 -8.0 0 0 171.05 543.07
  L 170.89 549.60
  A 1.18 1.18 0.0 0 1 169.81 550.75
  Q 169.25 550.80 166.48 550.79
  Q 163.70 550.78 163.15 550.73
  A 1.18 1.18 0.0 0 1 162.07 549.57
  L 161.95 543.04
  A 1.01 0.99 8.3 0 0 161.23 542.10
  Q 159.90 541.68 158.57 541.94
  A 1.20 1.20 0.0 0 0 157.61 543.14
  Q 157.66 548.16 157.65 552.63"
/>
<path stroke="#2b5c5d" vector-effect="non-scaling-stroke" d="
  M 195.73 563.37
  Q 196.67 563.38 197.13 563.15
  A 1.09 1.09 0.0 0 0 197.73 562.39
  Q 198.05 560.89 198.06 557.57
  C 198.08 554.50 198.75 552.94 200.21 550.67
  Q 204.17 544.50 205.07 543.33
  A 0.74 0.74 0.0 0 0 204.49 542.14
  L 202.39 542.14
  A 2.43 2.41 14.5 0 0 200.28 543.37
  Q 198.94 545.77 197.12 548.87
  Q 196.50 549.92 195.79 549.92
  Q 195.08 549.91 194.48 548.86
  Q 192.69 545.74 191.37 543.33
  A 2.43 2.41 -14.0 0 0 189.27 542.08
  L 187.17 542.06
  A 0.74 0.74 0.0 0 0 186.58 543.24
  Q 187.47 544.42 191.37 550.63
  C 192.81 552.91 193.46 554.48 193.45 557.55
  Q 193.43 560.87 193.74 562.37
  A 1.09 1.09 0.0 0 0 194.33 563.14
  Q 194.79 563.37 195.73 563.37"
/>
<path stroke="#2b5c5d" vector-effect="non-scaling-stroke" d="
  M 317.28 558.85
  Q 320.82 558.86 321.38 558.93
  A 1.76 1.74 81.7 0 1 322.81 560.00
  L 323.79 562.39
  A 1.77 1.77 0.0 0 0 325.43 563.49
  L 326.80 563.49
  A 0.93 0.93 0.0 0 0 327.66 562.21
  L 319.92 542.86
  A 1.02 0.99 89.7 0 0 319.38 542.31
  Q 318.48 541.93 317.36 541.92
  Q 316.24 541.92 315.34 542.29
  A 1.02 0.99 -89.1 0 0 314.79 542.83
  L 306.86 562.11
  A 0.93 0.93 0.0 0 0 307.71 563.40
  L 309.08 563.41
  A 1.77 1.77 0.0 0 0 310.73 562.33
  L 311.73 559.94
  A 1.76 1.74 -81.1 0 1 313.17 558.89
  Q 313.74 558.83 317.28 558.85"
/>
<path stroke="#275556" vector-effect="non-scaling-stroke" d="
  M 342.93 549.83
  A 0.23 0.23 0.0 0 1 343.34 549.70
  L 352.56 562.15
  A 2.53 2.42 84.3 0 0 353.46 562.92
  Q 354.59 563.49 356.03 563.14
  A 0.71 0.70 83.3 0 0 356.57 562.45
  L 356.57 543.21
  A 1.26 1.26 0.0 0 0 355.31 541.95
  L 354.14 541.95
  A 1.49 1.49 0.0 0 0 352.65 543.44
  L 352.65 554.87
  A 0.35 0.35 0.0 0 1 352.01 555.07
  Q 348.39 549.77 345.11 545.44
  C 343.38 543.16 343.04 541.73 339.91 542.15
  A 1.20 1.20 0.0 0 0 338.87 543.34
  L 338.87 562.44
  A 1.22 1.22 0.0 0 0 340.09 563.66
  L 341.58 563.66
  A 1.35 1.35 0.0 0 0 342.93 562.31
  L 342.93 549.83"
/>
<path stroke="#2b5c5d" vector-effect="non-scaling-stroke" d="
  M 416.44 542.90
  L 416.44 561.90
  A 1.34 1.34 0.0 0 0 417.78 563.24
  L 418.96 563.24
  A 1.28 1.28 0.0 0 0 420.24 561.96
  L 420.24 557.55
  A 1.08 1.08 0.0 0 1 421.30 556.47
  C 426.19 556.40 432.28 556.67 432.59 549.97
  C 432.86 544.18 428.55 541.69 423.22 542.18
  Q 422.34 542.26 416.94 542.39
  A 0.51 0.51 0.0 0 0 416.44 542.90"
/>
<path stroke="#2b5c5d" vector-effect="non-scaling-stroke" d="
  M 444.04 552.72
  Q 444.06 557.68 444.34 562.54
  A 0.70 0.70 0.0 0 0 445.04 563.20
  L 458.05 563.12
  A 1.22 1.21 -0.3 0 0 459.26 561.91
  L 459.26 560.78
  A 1.26 1.26 0.0 0 0 457.99 559.53
  L 449.02 559.58
  A 1.09 1.08 -0.3 0 1 447.92 558.51
  L 447.91 555.93
  A 1.34 1.34 0.0 0 1 449.22 554.58
  L 456.86 554.43
  A 1.00 0.98 -73.8 0 0 457.69 553.96
  Q 457.89 553.62 457.89 552.67
  Q 457.88 551.71 457.68 551.37
  A 1.00 0.98 73.4 0 0 456.84 550.91
  L 449.20 550.81
  A 1.34 1.34 0.0 0 1 447.88 549.48
  L 447.88 546.90
  A 1.09 1.08 -0.1 0 1 448.96 545.82
  L 457.94 545.80
  A 1.26 1.26 0.0 0 0 459.19 544.54
  L 459.19 543.41
  A 1.22 1.21 -0.1 0 0 457.97 542.21
  L 444.95 542.23
  A 0.70 0.70 0.0 0 0 444.26 542.89
  Q 444.02 547.76 444.04 552.72"
/>
<path stroke="#275556" vector-effect="non-scaling-stroke" d="
  M 503.55 562.47
  L 503.55 556.51
  A 1.40 1.40 0.0 0 1 504.95 555.11
  L 511.92 555.11
  A 1.27 1.27 0.0 0 0 513.18 553.99
  Q 513.51 551.11 511.75 551.05
  Q 505.90 550.83 504.71 550.97
  A 1.02 1.02 0.0 0 1 503.58 549.96
  L 503.58 547.15
  A 1.08 1.08 0.0 0 1 504.66 546.07
  L 512.83 546.07
  A 1.40 1.40 0.0 0 0 514.23 544.67
  L 514.23 543.23
  A 1.10 1.09 -90.0 0 0 513.14 542.13
  L 500.26 542.13
  A 0.64 0.64 0.0 0 0 499.62 542.77
  L 499.62 562.37
  A 0.98 0.98 0.0 0 0 500.60 563.35
  L 502.68 563.35
  A 0.88 0.87 -90.0 0 0 503.55 562.47"
/>
<path stroke="#2b5c5d" vector-effect="non-scaling-stroke" d="
  M 545.2687 550.2818
  A 9.38 9.38 0.0 0 0 534.9160 541.9877
  L 533.1666 542.1809
  A 9.38 9.38 0.0 0 0 524.8726 552.5335
  L 525.1513 555.0582
  A 9.38 9.38 0.0 0 0 535.5040 563.3523
  L 537.2534 563.1591
  A 9.38 9.38 0.0 0 0 545.5474 552.8065
  L 545.2687 550.2818"
/>
<path stroke="#2b5c5d" vector-effect="non-scaling-stroke" d="
  M 573.83 562.33
  L 569.97 556.48
  A 0.78 0.78 0.0 0 1 570.01 555.57
  Q 570.09 555.47 571.74 553.98
  C 576.12 550.02 573.62 542.37 567.22 542.10
  Q 563.31 541.93 557.93 542.38
  A 0.56 0.55 86.7 0 0 557.43 542.95
  Q 557.47 545.00 557.06 549.44
  C 556.68 553.67 557.02 557.82 557.28 561.76
  A 1.67 1.67 0.0 0 0 558.95 563.32
  L 559.38 563.32
  A 1.74 1.74 0.0 0 0 561.12 561.58
  L 561.12 557.75
  A 1.21 1.21 0.0 0 1 561.83 556.65
  Q 563.36 555.94 565.13 556.45
  A 0.95 0.94 -9.9 0 1 565.63 556.80
  L 569.42 562.25
  A 2.69 2.68 -17.3 0 0 571.63 563.41
  L 573.25 563.41
  A 0.70 0.70 0.0 0 0 573.83 562.33"
/>
<path stroke="#2b5c5d" vector-effect="non-scaling-stroke" d="
  M 596.38 557.13
  Q 596.68 557.13 597.21 556.48
  Q 599.45 553.79 602.00 549.59
  A 0.58 0.57 -51.1 0 1 602.90 549.49
  Q 603.16 549.76 603.10 550.51
  Q 602.61 556.20 602.93 562.03
  A 1.49 1.48 88.4 0 0 604.41 563.44
  L 604.88 563.44
  A 1.82 1.81 90.0 0 0 606.69 561.62
  L 606.69 542.77
  A 0.51 0.51 0.0 0 0 606.29 542.27
  Q 604.34 541.85 602.86 542.33
  A 1.60 1.57 7.6 0 0 602.05 542.94
  Q 599.70 546.48 597.08 550.61
  Q 596.75 551.13 596.39 551.13
  Q 596.02 551.13 595.69 550.61
  Q 593.08 546.47 590.74 542.93
  A 1.60 1.57 -7.5 0 0 589.93 542.32
  Q 588.45 541.84 586.50 542.25
  A 0.51 0.51 0.0 0 0 586.10 542.75
  L 586.06 561.60
  A 1.82 1.81 -89.9 0 0 587.87 563.42
  L 588.34 563.43
  A 1.49 1.48 -88.3 0 0 589.82 562.02
  Q 590.15 556.19 589.67 550.50
  Q 589.61 549.75 589.87 549.48
  A 0.58 0.57 51.2 0 1 590.77 549.58
  Q 593.32 553.78 595.55 556.48
  Q 596.08 557.13 596.38 557.13"
/>
<path stroke="#275556" vector-effect="non-scaling-stroke" d="
  M 654.70 550.13
  Q 659.39 555.79 661.89 560.47
  C 663.16 562.82 664.27 563.96 666.69 563.37
  Q 667.82 563.09 667.75 561.36
  Q 667.34 550.51 667.94 543.37
  A 1.32 1.32 0.0 0 0 666.62 541.94
  L 664.76 541.94
  A 0.99 0.98 -90.0 0 0 663.78 542.93
  L 663.78 554.86
  A 0.54 0.54 0.0 0 1 662.80 555.16
  L 654.30 542.95
  A 1.86 1.83 -13.6 0 0 653.00 542.17
  Q 651.57 542.00 650.57 542.29
  A 1.17 1.16 -7.9 0 0 649.72 543.41
  L 649.72 562.15
  A 1.13 1.13 0.0 0 0 650.85 563.28
  L 652.56 563.28
  A 1.06 1.06 0.0 0 0 653.62 562.22
  L 653.62 550.51
  A 0.61 0.61 0.0 0 1 654.70 550.13"
/>
<path stroke="#2b5c5d" vector-effect="non-scaling-stroke" d="
  M 709.06 552.67
  Q 709.05 557.64 709.30 562.52
  A 0.70 0.70 0.0 0 0 710.00 563.18
  L 723.05 563.18
  A 1.22 1.21 -0.0 0 0 724.27 561.97
  L 724.27 560.84
  A 1.26 1.26 0.0 0 0 723.01 559.58
  L 714.01 559.58
  A 1.09 1.08 -0.0 0 1 712.92 558.50
  L 712.92 555.91
  A 1.34 1.34 0.0 0 1 714.24 554.57
  L 721.90 554.46
  A 1.00 0.98 -73.5 0 0 722.73 553.99
  Q 722.94 553.65 722.95 552.70
  Q 722.95 551.74 722.74 551.40
  A 1.00 0.98 73.7 0 0 721.91 550.93
  L 714.25 550.79
  A 1.34 1.34 0.0 0 1 712.93 549.45
  L 712.94 546.86
  A 1.09 1.08 0.2 0 1 714.04 545.78
  L 723.04 545.82
  A 1.26 1.26 0.0 0 0 724.30 544.56
  L 724.31 543.43
  A 1.22 1.21 0.2 0 0 723.09 542.22
  L 710.04 542.17
  A 0.70 0.70 0.0 0 0 709.34 542.82
  Q 709.07 547.70 709.06 552.67"
/>
<path stroke="#2b5c5d" vector-effect="non-scaling-stroke" d="
  M 130.08 542.84
  L 130.02 562.05
  A 1.35 1.35 0.0 0 0 131.37 563.41
  L 132.56 563.41
  A 1.29 1.29 0.0 0 0 133.86 562.12
  L 133.87 557.66
  A 1.09 1.09 0.0 0 1 134.95 556.58
  C 139.89 556.52 146.05 556.81 146.38 550.04
  C 146.67 544.19 142.32 541.66 136.93 542.14
  Q 136.04 542.21 130.59 542.33
  A 0.52 0.52 0.0 0 0 130.08 542.84"
/>
<path stroke="#2b5c5d" vector-effect="non-scaling-stroke" d="
  M 247.2147 542.8364
  A 0.61 0.61 0.0 0 0 246.6069 542.2243
  L 244.1869 542.2158
  A 0.61 0.61 0.0 0 0 243.5747 542.8237
  L 243.5053 562.7236
  A 0.61 0.61 0.0 0 0 244.1131 563.3357
  L 246.5331 563.3442
  A 0.61 0.61 0.0 0 0 247.1453 562.7363
  L 247.2147 542.8364"
/>
<path stroke="#275556" vector-effect="non-scaling-stroke" d="
  M 369.46 542.96
  L 369.22 562.47
  A 0.86 0.86 0.0 0 0 370.07 563.34
  L 377.38 563.43
  A 10.63 9.65 0.7 0 0 388.13 553.91
  L 388.15 551.97
  A 10.63 9.65 0.7 0 0 377.64 542.20
  L 370.33 542.11
  A 0.86 0.86 0.0 0 0 369.46 542.96"
/>
<path stroke="#2b5c5d" vector-effect="non-scaling-stroke" d="
  M 487.37 563.21
  A 0.54 0.54 0.0 0 0 487.81 562.37
  L 483.60 556.33
  A 0.62 0.62 0.0 0 1 483.80 555.44
  Q 488.91 552.47 486.95 546.02
  A 2.48 2.37 -73.4 0 0 486.55 545.24
  Q 484.42 542.53 481.63 542.40
  Q 480.92 542.37 472.04 542.16
  A 0.78 0.77 -89.3 0 0 471.25 542.94
  L 471.25 562.14
  A 1.26 1.26 0.0 0 0 472.51 563.40
  L 473.75 563.40
  A 1.52 1.52 0.0 0 0 475.27 561.88
  L 475.27 557.50
  A 1.28 1.28 0.0 0 1 476.53 556.22
  Q 478.35 556.18 479.04 556.58
  A 1.28 1.25 87.2 0 1 479.44 556.95
  L 483.29 562.31
  A 2.15 2.14 -17.6 0 0 485.04 563.21
  L 487.37 563.21"
/>
<path stroke="#2b5c5d" vector-effect="non-scaling-stroke" d="
  M 620.50 563.25
  A 1.69 1.68 5.5 0 0 621.93 562.08
  Q 622.74 559.58 623.56 559.39
  Q 625.87 558.85 632.26 558.92
  Q 633.98 558.94 634.76 562.32
  A 1.19 1.17 -9.5 0 0 636.05 563.23
  L 637.72 563.05
  A 0.76 0.75 76.1 0 0 638.34 562.01
  L 630.87 543.34
  A 1.55 1.55 0.0 0 0 629.85 542.44
  Q 628.64 542.12 626.82 542.27
  A 0.81 0.78 9.4 0 0 626.16 542.73
  L 617.36 562.35
  A 0.82 0.82 0.0 0 0 618.19 563.50
  L 620.50 563.25"
/>
<path stroke="#2b5c5d" vector-effect="non-scaling-stroke" d="
  M 104.6731 551.3082
  A 0.60 0.60 0.0 0 0 104.0741 550.7071
  L 50.0542 550.6129
  A 0.60 0.60 0.0 0 0 49.4531 551.2118
  L 49.4469 554.7718
  A 0.60 0.60 0.0 0 0 50.0459 555.3729
  L 104.0658 555.4671
  A 0.60 0.60 0.0 0 0 104.6669 554.8682
  L 104.6731 551.3082"
/>
<path stroke="#2b5c5d" vector-effect="non-scaling-stroke" d="
  M 787.90 551.51
  A 0.78 0.78 0.0 0 0 787.12 550.73
  L 745.14 550.73
  A 0.78 0.78 0.0 0 0 744.36 551.51
  L 744.36 554.55
  A 0.78 0.78 0.0 0 0 745.14 555.33
  L 787.12 555.33
  A 0.78 0.78 0.0 0 0 787.90 554.55
  L 787.90 551.51"
/>
<path stroke="#808185" vector-effect="non-scaling-stroke" d="
  M 194.09 447.77
  L 194.01 470.13
  A 0.63 0.63 0.0 0 0 194.64 470.76
  L 227.92 470.88
  A 12.75 11.29 0.2 0 0 240.71 459.63
  L 240.71 458.59
  A 12.75 11.29 0.2 0 0 228.00 447.26
  L 194.72 447.14
  A 0.63 0.63 0.0 0 0 194.09 447.77"
/>
<path stroke="#808185" vector-effect="non-scaling-stroke" d="
  M 601.21 448.02
  L 601.29 469.10
  A 0.71 0.71 0.0 0 0 602.00 469.81
  L 636.78 469.69
  A 11.41 10.30 -0.2 0 0 648.15 459.35
  L 648.15 457.45
  A 11.41 10.30 -0.2 0 0 636.70 447.19
  L 601.92 447.31
  A 0.71 0.71 0.0 0 0 601.21 448.02"
/>
<path stroke="#808185" vector-effect="non-scaling-stroke" d="
  M 719.45 447.88
  L 719.37 496.74
  A 0.63 0.63 0.0 0 0 720.00 497.37
  L 744.55 497.41
  A 23.94 22.93 0.1 0 0 768.53 474.52
  L 768.53 470.26
  A 23.94 22.93 0.1 0 0 744.63 447.29
  L 720.08 447.25
  A 0.63 0.63 0.0 0 0 719.45 447.88"
/>
<path stroke="#2b5c5d" vector-effect="non-scaling-stroke" d="
  M 270.5486 545.7505
  A 7.13 6.67 -84.7 0 0 263.2485 552.2339
  A 7.13 6.67 -84.7 0 0 269.2314 559.9495
  A 7.13 6.67 -84.7 0 0 276.5315 553.4661
  A 7.13 6.67 -84.7 0 0 270.5486 545.7505"
/>
<path stroke="#2b5c5d" vector-effect="non-scaling-stroke" d="
  M 317.31 555.70
  Q 318.79 555.69 320.04 555.47
  A 0.78 0.77 72.1 0 0 320.60 554.36
  Q 319.15 551.45 317.93 548.52
  Q 317.76 548.12 317.26 548.12
  Q 316.75 548.12 316.59 548.53
  Q 315.41 551.48 313.99 554.40
  A 0.78 0.77 -72.9 0 0 314.57 555.51
  Q 315.83 555.71 317.31 555.70"
/>
<path stroke="#2b5c5d" vector-effect="non-scaling-stroke" d="
  M 419.86 546.79
  L 419.94 552.77
  A 0.77 0.77 0.0 0 0 420.72 553.53
  L 424.96 553.47
  A 3.83 3.33 -0.8 0 0 428.75 550.09
  L 428.73 549.23
  A 3.83 3.33 -0.8 0 0 424.86 545.95
  L 420.62 546.01
  A 0.77 0.77 0.0 0 0 419.86 546.79"
/>
<path stroke="#2b5c5d" vector-effect="non-scaling-stroke" d="
  M 535.9130 545.5760
  A 7.28 6.42 -84.3 0 0 528.8017 552.1824
  A 7.28 6.42 -84.3 0 0 534.4670 560.0640
  A 7.28 6.42 -84.3 0 0 541.5783 553.4576
  A 7.28 6.42 -84.3 0 0 535.9130 545.5760"
/>
<path stroke="#2b5c5d" vector-effect="non-scaling-stroke" d="
  M 561.33 546.99
  L 561.14 551.55
  A 1.07 1.07 0.0 0 0 562.16 552.66
  L 566.38 552.84
  A 3.17 3.16 2.4 0 0 569.68 549.82
  L 569.69 549.44
  A 3.17 3.16 2.4 0 0 566.66 546.15
  L 562.44 545.97
  A 1.07 1.07 0.0 0 0 561.33 546.99"
/>
<path stroke="#2b5c5d" vector-effect="non-scaling-stroke" d="
  M 133.55 547.06
  L 133.63 552.40
  A 1.10 1.10 0.0 0 0 134.74 553.48
  L 138.12 553.44
  A 4.12 3.32 -0.8 0 0 142.20 550.06
  L 142.18 549.16
  A 4.12 3.32 -0.8 0 0 138.02 545.90
  L 134.64 545.95
  A 1.10 1.10 0.0 0 0 133.55 547.06"
/>
<path stroke="#275556" vector-effect="non-scaling-stroke" d="
  M 373.04 547.17
  L 373.68 558.57
  A 1.11 1.11 0.0 0 0 374.85 559.62
  L 377.71 559.46
  A 6.02 5.80 -3.2 0 0 383.40 553.33
  L 383.29 551.29
  A 6.02 5.80 -3.2 0 0 376.95 545.84
  L 374.09 546.00
  A 1.11 1.11 0.0 0 0 373.04 547.17"
/>
<path stroke="#2b5c5d" vector-effect="non-scaling-stroke" d="
  M 475.22 546.73
  L 475.20 551.69
  A 0.90 0.90 0.0 0 0 476.10 552.59
  L 480.26 552.60
  A 3.20 3.11 0.2 0 0 483.47 549.50
  L 483.47 548.96
  A 3.20 3.11 0.2 0 0 480.28 545.84
  L 476.12 545.83
  A 0.90 0.90 0.0 0 0 475.22 546.73"
/>
<path stroke="#2b5c5d" vector-effect="non-scaling-stroke" d="
  M 625.12 554.62
  A 0.77 0.77 0.0 0 0 625.85 555.64
  L 630.49 555.60
  A 0.77 0.77 0.0 0 0 631.21 554.56
  L 628.82 548.14
  A 0.77 0.77 0.0 0 0 627.37 548.16
  L 625.12 554.62"
/>
</g>
<path fill="none" d="
  M 817.00 0.00
  L 817.00 575.00
  L 0.00 575.00
  L 0.00 0.00
  L 817.00 0.00
  Z
  M 300.47 303.39
  Q 298.92 303.92 298.45 303.07
  Q 297.81 301.93 297.31 301.04
  C 295.68 295.67 293.31 290.47 292.36 285.18
  C 291.22 278.83 290.39 271.42 290.39 263.58
  Q 290.36 177.01 290.38 159.83
  Q 290.39 152.20 288.89 148.45
  Q 285.05 138.85 274.31 136.83
  C 266.97 135.45 258.80 138.46 254.82 145.06
  Q 251.85 150.01 251.86 154.50
  Q 252.00 208.19 251.82 246.20
  Q 251.71 268.92 253.46 280.71
  Q 256.04 297.99 262.72 314.33
  C 276.01 346.34 300.71 373.06 332.82 386.28
  Q 347.71 392.40 368.77 395.27
  Q 387.22 397.78 405.84 397.49
  Q 428.37 398.03 445.06 394.61
  C 482.12 387.00 514.07 362.46 533.15 330.17
  Q 552.28 297.79 553.85 262.25
  Q 554.10 256.55 553.91 233.82
  L 553.90 162.21
  L 553.37 118.76
  Q 553.33 117.34 553.92 115.92
  A 0.51 0.51 0.0 0 1 554.70 115.71
  L 581.90 136.35
  A 0.30 0.30 0.0 0 0 582.38 136.08
  L 570.48 25.40
  A 0.47 0.47 0.0 0 0 569.72 25.08
  L 480.88 97.68
  A 0.50 0.50 0.0 0 0 481.08 98.55
  Q 484.90 99.43 489.25 99.50
  Q 498.65 99.65 513.10 100.86
  A 0.65 0.65 0.0 0 1 513.63 101.80
  C 510.94 107.21 507.84 111.91 504.51 118.07
  Q 484.75 154.56 459.39 186.88
  C 454.84 192.67 451.43 197.52 446.45 203.33
  Q 442.66 207.77 438.56 212.81
  Q 431.08 222.00 415.80 237.05
  Q 391.46 261.03 366.64 276.58
  Q 364.65 277.83 358.94 281.43
  Q 354.81 284.03 340.77 290.99
  Q 337.03 292.85 324.86 297.33
  Q 318.92 299.51 312.80 300.86
  Q 306.65 302.22 300.47 303.39
  Z
  M 93.41 498.66
  C 78.11 498.66 67.90 488.27 67.93 472.99
  Q 67.94 471.03 68.02 431.57
  A 0.61 0.61 0.0 0 0 67.41 430.96
  L 50.26 430.96
  A 0.60 0.60 0.0 0 0 49.66 431.56
  Q 49.58 442.63 49.60 465.79
  C 49.61 476.79 49.54 483.47 53.36 491.93
  C 60.56 507.93 76.62 514.85 93.41 514.86
  C 110.21 514.86 126.26 507.94 133.47 491.94
  C 137.29 483.48 137.22 476.80 137.24 465.80
  Q 137.26 442.64 137.18 431.57
  A 0.60 0.60 0.0 0 0 136.58 430.97
  L 119.43 430.97
  A 0.61 0.61 0.0 0 0 118.82 431.58
  Q 118.89 471.04 118.90 472.99
  C 118.93 488.28 108.72 498.66 93.41 498.66
  Z
  M 360.63 462.35
  Q 361.05 462.36 361.20 462.77
  Q 369.93 485.62 380.66 512.85
  A 0.81 0.80 -10.7 0 0 381.41 513.36
  L 398.18 513.36
  A 0.80 0.79 10.9 0 0 398.92 512.87
  L 432.84 431.66
  A 0.36 0.36 0.0 0 0 432.51 431.17
  L 413.45 431.17
  A 0.75 0.74 11.2 0 0 412.76 431.63
  L 389.95 488.76
  A 0.38 0.38 0.0 0 1 389.24 488.75
  L 368.27 431.57
  A 0.85 0.85 0.0 0 0 367.46 431.02
  Q 364.09 431.08 360.70 431.07
  Q 357.31 431.06 353.94 430.99
  A 0.85 0.85 0.0 0 0 353.13 431.54
  L 331.90 488.62
  A 0.38 0.38 0.0 0 1 331.19 488.62
  L 308.64 431.39
  A 0.75 0.74 -10.9 0 0 307.95 430.93
  L 288.89 430.84
  A 0.36 0.36 0.0 0 0 288.56 431.33
  L 322.11 512.69
  A 0.80 0.79 -10.6 0 0 322.84 513.19
  L 339.61 513.26
  A 0.81 0.80 10.9 0 0 340.37 512.76
  Q 351.22 485.58 360.05 462.77
  Q 360.21 462.35 360.63 462.35
  Z
  M 194.81 486.65
  Q 209.66 486.53 227.54 486.56
  Q 237.42 486.58 244.60 482.91
  Q 260.82 474.63 259.11 454.99
  C 258.17 444.19 250.39 435.90 239.92 432.69
  Q 234.57 431.05 227.26 431.03
  Q 186.54 430.96 176.35 430.99
  A 0.57 0.56 -90.0 0 0 175.79 431.56
  L 175.79 512.82
  A 0.45 0.44 90.0 0 0 176.23 513.27
  L 193.39 513.27
  A 0.65 0.64 90.0 0 0 194.03 512.62
  L 194.03 487.43
  A 0.78 0.78 0.0 0 1 194.81 486.65
  Z
  M 500.64 451.33
  Q 501.04 451.33 501.35 451.96
  Q 511.95 473.60 531.30 512.81
  A 1.00 0.98 -12.9 0 0 532.19 513.36
  L 551.37 513.36
  A 0.28 0.28 0.0 0 0 551.62 512.96
  L 510.74 431.40
  A 0.72 0.71 -13.5 0 0 510.09 431.01
  Q 505.08 431.12 500.69 431.11
  Q 496.30 431.10 491.29 430.97
  A 0.72 0.71 13.8 0 0 490.63 431.36
  L 449.41 512.74
  A 0.28 0.28 0.0 0 0 449.66 513.14
  L 468.84 513.23
  A 1.00 0.98 13.1 0 0 469.73 512.68
  Q 489.25 473.55 499.94 451.95
  Q 500.25 451.32 500.64 451.33
  Z
  M 601.21 512.55
  L 601.21 485.84
  A 0.68 0.67 -0.0 0 1 601.89 485.17
  L 628.80 485.17
  A 2.15 2.14 72.9 0 1 630.58 486.12
  L 648.24 512.61
  A 1.45 1.42 72.8 0 0 649.43 513.25
  L 669.57 513.25
  A 0.30 0.30 0.0 0 0 669.82 512.78
  L 649.23 483.17
  A 0.55 0.54 62.4 0 1 649.48 482.35
  Q 665.12 476.62 666.80 460.65
  C 668.71 442.57 655.25 431.18 637.93 431.13
  Q 597.72 431.00 583.65 431.04
  A 0.50 0.49 -90.0 0 0 583.16 431.54
  L 583.16 512.77
  A 0.47 0.47 0.0 0 0 583.63 513.24
  L 600.52 513.24
  A 0.69 0.69 0.0 0 0 601.21 512.55
  Z
  M 701.21 431.57
  L 701.49 512.91
  A 0.37 0.37 0.0 0 0 701.86 513.28
  L 746.00 513.12
  A 40.89 39.00 -0.2 0 0 786.76 473.98
  L 786.74 469.90
  A 40.89 39.00 -0.2 0 0 745.72 431.04
  L 701.58 431.20
  A 0.37 0.37 0.0 0 0 701.21 431.57
  Z
  M 228.80 546.85
  L 230.03 545.85
  A 1.00 1.00 0.0 0 0 230.02 544.29
  Q 225.69 540.82 220.60 542.09
  Q 216.12 543.21 215.87 547.53
  C 215.44 555.13 224.38 552.55 227.15 556.24
  A 2.35 2.09 -31.0 0 1 226.13 559.50
  C 223.02 561.04 220.44 559.66 217.91 557.70
  A 0.85 0.85 0.0 0 0 216.95 557.64
  Q 215.61 558.43 215.15 559.36
  A 0.94 0.92 37.7 0 0 215.29 560.38
  Q 217.19 562.52 219.48 563.03
  C 224.12 564.07 231.37 563.13 231.49 557.01
  C 231.61 551.06 226.01 550.68 221.17 549.57
  Q 219.87 549.28 219.70 548.34
  A 2.10 2.03 -9.8 0 1 221.45 545.95
  C 224.48 545.46 225.53 546.14 228.13 546.97
  A 0.72 0.71 34.4 0 0 228.80 546.85
  Z
  M 269.1302 541.7453
  A 10.97 10.54 -94.6 0 0 259.5040 553.5253
  A 10.97 10.54 -94.6 0 0 270.8898 563.6147
  A 10.97 10.54 -94.6 0 0 280.5160 551.8347
  A 10.97 10.54 -94.6 0 0 269.1302 541.7453
  Z
  M 679.14 552.92
  Q 679.22 558.30 684.05 561.65
  Q 690.50 566.13 697.26 561.23
  A 1.35 1.35 0.0 0 0 697.51 559.29
  L 696.74 558.34
  A 1.54 1.54 0.0 0 0 694.70 558.03
  C 691.00 560.49 686.69 560.58 684.35 556.43
  Q 683.87 555.57 683.83 552.85
  Q 683.79 550.12 684.25 549.25
  C 686.46 545.03 690.77 544.99 694.54 547.34
  A 1.54 1.54 0.0 0 0 696.57 546.97
  L 697.31 545.99
  A 1.35 1.35 0.0 0 0 697.00 544.06
  Q 690.10 539.37 683.79 544.04
  Q 679.06 547.54 679.14 552.92
  Z
  M 157.65 552.63
  Q 157.64 557.10 157.55 562.13
  A 1.20 1.20 0.0 0 0 158.51 563.33
  Q 159.83 563.60 161.17 563.19
  A 1.01 0.99 -8.0 0 0 161.89 562.25
  L 162.05 555.72
  A 1.18 1.18 0.0 0 1 163.14 554.57
  Q 163.69 554.52 166.47 554.53
  Q 169.24 554.54 169.80 554.59
  A 1.18 1.18 0.0 0 1 170.88 555.75
  L 171.00 562.28
  A 1.01 0.99 8.3 0 0 171.71 563.22
  Q 173.05 563.64 174.37 563.38
  A 1.20 1.20 0.0 0 0 175.34 562.19
  Q 175.28 557.16 175.29 552.69
  Q 175.31 548.22 175.39 543.19
  A 1.20 1.20 0.0 0 0 174.43 541.99
  Q 173.11 541.72 171.77 542.13
  A 1.01 0.99 -8.0 0 0 171.05 543.07
  L 170.89 549.60
  A 1.18 1.18 0.0 0 1 169.81 550.75
  Q 169.25 550.80 166.48 550.79
  Q 163.70 550.78 163.15 550.73
  A 1.18 1.18 0.0 0 1 162.07 549.57
  L 161.95 543.04
  A 1.01 0.99 8.3 0 0 161.23 542.10
  Q 159.90 541.68 158.57 541.94
  A 1.20 1.20 0.0 0 0 157.61 543.14
  Q 157.66 548.16 157.65 552.63
  Z
  M 195.73 563.37
  Q 196.67 563.38 197.13 563.15
  A 1.09 1.09 0.0 0 0 197.73 562.39
  Q 198.05 560.89 198.06 557.57
  C 198.08 554.50 198.75 552.94 200.21 550.67
  Q 204.17 544.50 205.07 543.33
  A 0.74 0.74 0.0 0 0 204.49 542.14
  L 202.39 542.14
  A 2.43 2.41 14.5 0 0 200.28 543.37
  Q 198.94 545.77 197.12 548.87
  Q 196.50 549.92 195.79 549.92
  Q 195.08 549.91 194.48 548.86
  Q 192.69 545.74 191.37 543.33
  A 2.43 2.41 -14.0 0 0 189.27 542.08
  L 187.17 542.06
  A 0.74 0.74 0.0 0 0 186.58 543.24
  Q 187.47 544.42 191.37 550.63
  C 192.81 552.91 193.46 554.48 193.45 557.55
  Q 193.43 560.87 193.74 562.37
  A 1.09 1.09 0.0 0 0 194.33 563.14
  Q 194.79 563.37 195.73 563.37
  Z
  M 317.28 558.85
  Q 320.82 558.86 321.38 558.93
  A 1.76 1.74 81.7 0 1 322.81 560.00
  L 323.79 562.39
  A 1.77 1.77 0.0 0 0 325.43 563.49
  L 326.80 563.49
  A 0.93 0.93 0.0 0 0 327.66 562.21
  L 319.92 542.86
  A 1.02 0.99 89.7 0 0 319.38 542.31
  Q 318.48 541.93 317.36 541.92
  Q 316.24 541.92 315.34 542.29
  A 1.02 0.99 -89.1 0 0 314.79 542.83
  L 306.86 562.11
  A 0.93 0.93 0.0 0 0 307.71 563.40
  L 309.08 563.41
  A 1.77 1.77 0.0 0 0 310.73 562.33
  L 311.73 559.94
  A 1.76 1.74 -81.1 0 1 313.17 558.89
  Q 313.74 558.83 317.28 558.85
  Z
  M 342.93 549.83
  A 0.23 0.23 0.0 0 1 343.34 549.70
  L 352.56 562.15
  A 2.53 2.42 84.3 0 0 353.46 562.92
  Q 354.59 563.49 356.03 563.14
  A 0.71 0.70 83.3 0 0 356.57 562.45
  L 356.57 543.21
  A 1.26 1.26 0.0 0 0 355.31 541.95
  L 354.14 541.95
  A 1.49 1.49 0.0 0 0 352.65 543.44
  L 352.65 554.87
  A 0.35 0.35 0.0 0 1 352.01 555.07
  Q 348.39 549.77 345.11 545.44
  C 343.38 543.16 343.04 541.73 339.91 542.15
  A 1.20 1.20 0.0 0 0 338.87 543.34
  L 338.87 562.44
  A 1.22 1.22 0.0 0 0 340.09 563.66
  L 341.58 563.66
  A 1.35 1.35 0.0 0 0 342.93 562.31
  L 342.93 549.83
  Z
  M 416.44 542.90
  L 416.44 561.90
  A 1.34 1.34 0.0 0 0 417.78 563.24
  L 418.96 563.24
  A 1.28 1.28 0.0 0 0 420.24 561.96
  L 420.24 557.55
  A 1.08 1.08 0.0 0 1 421.30 556.47
  C 426.19 556.40 432.28 556.67 432.59 549.97
  C 432.86 544.18 428.55 541.69 423.22 542.18
  Q 422.34 542.26 416.94 542.39
  A 0.51 0.51 0.0 0 0 416.44 542.90
  Z
  M 444.04 552.72
  Q 444.06 557.68 444.34 562.54
  A 0.70 0.70 0.0 0 0 445.04 563.20
  L 458.05 563.12
  A 1.22 1.21 -0.3 0 0 459.26 561.91
  L 459.26 560.78
  A 1.26 1.26 0.0 0 0 457.99 559.53
  L 449.02 559.58
  A 1.09 1.08 -0.3 0 1 447.92 558.51
  L 447.91 555.93
  A 1.34 1.34 0.0 0 1 449.22 554.58
  L 456.86 554.43
  A 1.00 0.98 -73.8 0 0 457.69 553.96
  Q 457.89 553.62 457.89 552.67
  Q 457.88 551.71 457.68 551.37
  A 1.00 0.98 73.4 0 0 456.84 550.91
  L 449.20 550.81
  A 1.34 1.34 0.0 0 1 447.88 549.48
  L 447.88 546.90
  A 1.09 1.08 -0.1 0 1 448.96 545.82
  L 457.94 545.80
  A 1.26 1.26 0.0 0 0 459.19 544.54
  L 459.19 543.41
  A 1.22 1.21 -0.1 0 0 457.97 542.21
  L 444.95 542.23
  A 0.70 0.70 0.0 0 0 444.26 542.89
  Q 444.02 547.76 444.04 552.72
  Z
  M 503.55 562.47
  L 503.55 556.51
  A 1.40 1.40 0.0 0 1 504.95 555.11
  L 511.92 555.11
  A 1.27 1.27 0.0 0 0 513.18 553.99
  Q 513.51 551.11 511.75 551.05
  Q 505.90 550.83 504.71 550.97
  A 1.02 1.02 0.0 0 1 503.58 549.96
  L 503.58 547.15
  A 1.08 1.08 0.0 0 1 504.66 546.07
  L 512.83 546.07
  A 1.40 1.40 0.0 0 0 514.23 544.67
  L 514.23 543.23
  A 1.10 1.09 -90.0 0 0 513.14 542.13
  L 500.26 542.13
  A 0.64 0.64 0.0 0 0 499.62 542.77
  L 499.62 562.37
  A 0.98 0.98 0.0 0 0 500.60 563.35
  L 502.68 563.35
  A 0.88 0.87 -90.0 0 0 503.55 562.47
  Z
  M 545.2687 550.2818
  A 9.38 9.38 0.0 0 0 534.9160 541.9877
  L 533.1666 542.1809
  A 9.38 9.38 0.0 0 0 524.8726 552.5335
  L 525.1513 555.0582
  A 9.38 9.38 0.0 0 0 535.5040 563.3523
  L 537.2534 563.1591
  A 9.38 9.38 0.0 0 0 545.5474 552.8065
  L 545.2687 550.2818
  Z
  M 573.83 562.33
  L 569.97 556.48
  A 0.78 0.78 0.0 0 1 570.01 555.57
  Q 570.09 555.47 571.74 553.98
  C 576.12 550.02 573.62 542.37 567.22 542.10
  Q 563.31 541.93 557.93 542.38
  A 0.56 0.55 86.7 0 0 557.43 542.95
  Q 557.47 545.00 557.06 549.44
  C 556.68 553.67 557.02 557.82 557.28 561.76
  A 1.67 1.67 0.0 0 0 558.95 563.32
  L 559.38 563.32
  A 1.74 1.74 0.0 0 0 561.12 561.58
  L 561.12 557.75
  A 1.21 1.21 0.0 0 1 561.83 556.65
  Q 563.36 555.94 565.13 556.45
  A 0.95 0.94 -9.9 0 1 565.63 556.80
  L 569.42 562.25
  A 2.69 2.68 -17.3 0 0 571.63 563.41
  L 573.25 563.41
  A 0.70 0.70 0.0 0 0 573.83 562.33
  Z
  M 596.38 557.13
  Q 596.68 557.13 597.21 556.48
  Q 599.45 553.79 602.00 549.59
  A 0.58 0.57 -51.1 0 1 602.90 549.49
  Q 603.16 549.76 603.10 550.51
  Q 602.61 556.20 602.93 562.03
  A 1.49 1.48 88.4 0 0 604.41 563.44
  L 604.88 563.44
  A 1.82 1.81 90.0 0 0 606.69 561.62
  L 606.69 542.77
  A 0.51 0.51 0.0 0 0 606.29 542.27
  Q 604.34 541.85 602.86 542.33
  A 1.60 1.57 7.6 0 0 602.05 542.94
  Q 599.70 546.48 597.08 550.61
  Q 596.75 551.13 596.39 551.13
  Q 596.02 551.13 595.69 550.61
  Q 593.08 546.47 590.74 542.93
  A 1.60 1.57 -7.5 0 0 589.93 542.32
  Q 588.45 541.84 586.50 542.25
  A 0.51 0.51 0.0 0 0 586.10 542.75
  L 586.06 561.60
  A 1.82 1.81 -89.9 0 0 587.87 563.42
  L 588.34 563.43
  A 1.49 1.48 -88.3 0 0 589.82 562.02
  Q 590.15 556.19 589.67 550.50
  Q 589.61 549.75 589.87 549.48
  A 0.58 0.57 51.2 0 1 590.77 549.58
  Q 593.32 553.78 595.55 556.48
  Q 596.08 557.13 596.38 557.13
  Z
  M 654.70 550.13
  Q 659.39 555.79 661.89 560.47
  C 663.16 562.82 664.27 563.96 666.69 563.37
  Q 667.82 563.09 667.75 561.36
  Q 667.34 550.51 667.94 543.37
  A 1.32 1.32 0.0 0 0 666.62 541.94
  L 664.76 541.94
  A 0.99 0.98 -90.0 0 0 663.78 542.93
  L 663.78 554.86
  A 0.54 0.54 0.0 0 1 662.80 555.16
  L 654.30 542.95
  A 1.86 1.83 -13.6 0 0 653.00 542.17
  Q 651.57 542.00 650.57 542.29
  A 1.17 1.16 -7.9 0 0 649.72 543.41
  L 649.72 562.15
  A 1.13 1.13 0.0 0 0 650.85 563.28
  L 652.56 563.28
  A 1.06 1.06 0.0 0 0 653.62 562.22
  L 653.62 550.51
  A 0.61 0.61 0.0 0 1 654.70 550.13
  Z
  M 709.06 552.67
  Q 709.05 557.64 709.30 562.52
  A 0.70 0.70 0.0 0 0 710.00 563.18
  L 723.05 563.18
  A 1.22 1.21 -0.0 0 0 724.27 561.97
  L 724.27 560.84
  A 1.26 1.26 0.0 0 0 723.01 559.58
  L 714.01 559.58
  A 1.09 1.08 -0.0 0 1 712.92 558.50
  L 712.92 555.91
  A 1.34 1.34 0.0 0 1 714.24 554.57
  L 721.90 554.46
  A 1.00 0.98 -73.5 0 0 722.73 553.99
  Q 722.94 553.65 722.95 552.70
  Q 722.95 551.74 722.74 551.40
  A 1.00 0.98 73.7 0 0 721.91 550.93
  L 714.25 550.79
  A 1.34 1.34 0.0 0 1 712.93 549.45
  L 712.94 546.86
  A 1.09 1.08 0.2 0 1 714.04 545.78
  L 723.04 545.82
  A 1.26 1.26 0.0 0 0 724.30 544.56
  L 724.31 543.43
  A 1.22 1.21 0.2 0 0 723.09 542.22
  L 710.04 542.17
  A 0.70 0.70 0.0 0 0 709.34 542.82
  Q 709.07 547.70 709.06 552.67
  Z
  M 130.08 542.84
  L 130.02 562.05
  A 1.35 1.35 0.0 0 0 131.37 563.41
  L 132.56 563.41
  A 1.29 1.29 0.0 0 0 133.86 562.12
  L 133.87 557.66
  A 1.09 1.09 0.0 0 1 134.95 556.58
  C 139.89 556.52 146.05 556.81 146.38 550.04
  C 146.67 544.19 142.32 541.66 136.93 542.14
  Q 136.04 542.21 130.59 542.33
  A 0.52 0.52 0.0 0 0 130.08 542.84
  Z
  M 247.2147 542.8364
  A 0.61 0.61 0.0 0 0 246.6069 542.2243
  L 244.1869 542.2158
  A 0.61 0.61 0.0 0 0 243.5747 542.8237
  L 243.5053 562.7236
  A 0.61 0.61 0.0 0 0 244.1131 563.3357
  L 246.5331 563.3442
  A 0.61 0.61 0.0 0 0 247.1453 562.7363
  L 247.2147 542.8364
  Z
  M 369.46 542.96
  L 369.22 562.47
  A 0.86 0.86 0.0 0 0 370.07 563.34
  L 377.38 563.43
  A 10.63 9.65 0.7 0 0 388.13 553.91
  L 388.15 551.97
  A 10.63 9.65 0.7 0 0 377.64 542.20
  L 370.33 542.11
  A 0.86 0.86 0.0 0 0 369.46 542.96
  Z
  M 487.37 563.21
  A 0.54 0.54 0.0 0 0 487.81 562.37
  L 483.60 556.33
  A 0.62 0.62 0.0 0 1 483.80 555.44
  Q 488.91 552.47 486.95 546.02
  A 2.48 2.37 -73.4 0 0 486.55 545.24
  Q 484.42 542.53 481.63 542.40
  Q 480.92 542.37 472.04 542.16
  A 0.78 0.77 -89.3 0 0 471.25 542.94
  L 471.25 562.14
  A 1.26 1.26 0.0 0 0 472.51 563.40
  L 473.75 563.40
  A 1.52 1.52 0.0 0 0 475.27 561.88
  L 475.27 557.50
  A 1.28 1.28 0.0 0 1 476.53 556.22
  Q 478.35 556.18 479.04 556.58
  A 1.28 1.25 87.2 0 1 479.44 556.95
  L 483.29 562.31
  A 2.15 2.14 -17.6 0 0 485.04 563.21
  L 487.37 563.21
  Z
  M 620.50 563.25
  A 1.69 1.68 5.5 0 0 621.93 562.08
  Q 622.74 559.58 623.56 559.39
  Q 625.87 558.85 632.26 558.92
  Q 633.98 558.94 634.76 562.32
  A 1.19 1.17 -9.5 0 0 636.05 563.23
  L 637.72 563.05
  A 0.76 0.75 76.1 0 0 638.34 562.01
  L 630.87 543.34
  A 1.55 1.55 0.0 0 0 629.85 542.44
  Q 628.64 542.12 626.82 542.27
  A 0.81 0.78 9.4 0 0 626.16 542.73
  L 617.36 562.35
  A 0.82 0.82 0.0 0 0 618.19 563.50
  L 620.50 563.25
  Z
  M 104.6731 551.3082
  A 0.60 0.60 0.0 0 0 104.0741 550.7071
  L 50.0542 550.6129
  A 0.60 0.60 0.0 0 0 49.4531 551.2118
  L 49.4469 554.7718
  A 0.60 0.60 0.0 0 0 50.0459 555.3729
  L 104.0658 555.4671
  A 0.60 0.60 0.0 0 0 104.6669 554.8682
  L 104.6731 551.3082
  Z
  M 787.90 551.51
  A 0.78 0.78 0.0 0 0 787.12 550.73
  L 745.14 550.73
  A 0.78 0.78 0.0 0 0 744.36 551.51
  L 744.36 554.55
  A 0.78 0.78 0.0 0 0 745.14 555.33
  L 787.12 555.33
  A 0.78 0.78 0.0 0 0 787.90 554.55
  L 787.90 551.51
  Z"
/>
<path fill="#65cfca" d="
  M 553.37 118.76
  Q 550.09 122.82 547.38 127.12
  Q 543.31 133.58 541.77 135.73
  Q 533.17 147.81 524.75 160.01
  Q 523.12 162.37 520.61 165.36
  Q 518.37 168.03 516.34 170.62
  C 511.96 175.34 507.59 181.26 503.95 185.21
  C 499.37 190.19 496.09 194.94 491.65 199.25
  Q 489.58 201.26 484.32 207.18
  Q 481.24 210.62 476.87 215.00
  C 452.25 239.62 425.02 262.04 395.02 278.51
  C 388.19 282.26 384.12 284.99 378.76 287.05
  C 373.24 289.17 365.95 292.95 359.48 294.88
  Q 356.39 295.80 349.52 298.22
  Q 345.75 299.55 339.33 300.81
  C 325.62 303.51 313.77 305.30 301.04 304.21
  L 300.47 303.39
  Q 306.65 302.22 312.80 300.86
  Q 318.92 299.51 324.86 297.33
  Q 337.03 292.85 340.77 290.99
  Q 354.81 284.03 358.94 281.43
  Q 364.65 277.83 366.64 276.58
  Q 391.46 261.03 415.80 237.05
  Q 431.08 222.00 438.56 212.81
  Q 442.66 207.77 446.45 203.33
  C 451.43 197.52 454.84 192.67 459.39 186.88
  Q 484.75 154.56 504.51 118.07
  C 507.84 111.91 510.94 107.21 513.63 101.80
  A 0.65 0.65 0.0 0 0 513.10 100.86
  Q 498.65 99.65 489.25 99.50
  Q 484.90 99.43 481.08 98.55
  A 0.50 0.50 0.0 0 1 480.88 97.68
  L 569.72 25.08
  A 0.47 0.47 0.0 0 1 570.48 25.40
  L 582.38 136.08
  A 0.30 0.30 0.0 0 1 581.90 136.35
  L 554.70 115.71
  A 0.51 0.51 0.0 0 0 553.92 115.92
  Q 553.33 117.34 553.37 118.76
  Z"
/>
<path fill="#4da6a0" d="
  M 553.37 118.76
  L 553.90 162.21
  L 553.70 149.62
  A 0.21 0.21 0.0 0 0 553.34 149.47
  Q 550.83 151.91 549.74 153.37
  Q 536.82 170.76 524.49 184.33
  C 521.83 187.25 519.16 189.35 516.55 184.95
  L 516.34 170.62
  Q 518.37 168.03 520.61 165.36
  Q 523.12 162.37 524.75 160.01
  Q 533.17 147.81 541.77 135.73
  Q 543.31 133.58 547.38 127.12
  Q 550.09 122.82 553.37 118.76
  Z"
/>
<path fill="#65cfca" d="
  M 297.31 301.04
  Q 290.12 299.70 283.12 299.71
  C 272.72 299.72 267.64 306.06 262.72 314.33
  Q 256.04 297.99 253.46 280.71
  Q 251.71 268.92 251.82 246.20
  Q 252.00 208.19 251.86 154.50
  Q 251.85 150.01 254.82 145.06
  C 258.80 138.46 266.97 135.45 274.31 136.83
  Q 285.05 138.85 288.89 148.45
  Q 290.39 152.20 290.38 159.83
  Q 290.36 177.01 290.39 263.58
  C 290.39 271.42 291.22 278.83 292.36 285.18
  C 293.31 290.47 295.68 295.67 297.31 301.04
  Z"
/>
<path fill="#55b4ae" d="
  M 553.90 162.21
  L 553.91 233.82
  Q 534.71 238.18 518.55 249.47
  A 1.10 1.09 -18.1 0 0 518.09 250.36
  Q 518.21 258.75 518.02 266.64
  C 517.94 269.81 517.60 275.19 515.54 277.69
  A 0.17 0.17 0.0 0 1 515.24 277.56
  Q 515.34 276.73 515.17 276.04
  Q 516.50 268.11 516.50 262.25
  Q 516.50 223.72 516.55 184.95
  C 519.16 189.35 521.83 187.25 524.49 184.33
  Q 536.82 170.76 549.74 153.37
  Q 550.83 151.91 553.34 149.47
  A 0.21 0.21 0.0 0 1 553.70 149.62
  L 553.90 162.21
  Z"
/>
<path fill="#01030b" d="
  M 516.34 170.62
  L 516.55 184.95
  Q 516.50 223.72 516.50 262.25
  Q 516.50 268.11 515.17 276.04
  Q 510.69 300.35 496.33 320.23
  C 494.17 323.21 490.93 326.65 488.98 329.31
  Q 486.76 332.33 482.83 335.51
  Q 470.97 345.09 465.36 348.03
  Q 458.82 351.45 447.25 355.51
  Q 445.27 356.21 441.70 356.77
  Q 438.76 357.23 436.05 357.71
  Q 410.49 361.09 385.26 358.55
  C 369.31 356.94 356.96 355.03 345.12 350.63
  Q 339.39 348.51 327.90 340.74
  Q 321.71 336.57 318.07 332.38
  C 313.57 327.21 307.96 321.37 304.10 314.10
  Q 303.25 312.51 299.42 306.07
  A 1.33 1.33 0.0 0 1 299.99 304.19
  Q 300.19 304.09 301.04 304.21
  C 313.77 305.30 325.62 303.51 339.33 300.81
  Q 345.75 299.55 349.52 298.22
  Q 356.39 295.80 359.48 294.88
  C 365.95 292.95 373.24 289.17 378.76 287.05
  C 384.12 284.99 388.19 282.26 395.02 278.51
  C 425.02 262.04 452.25 239.62 476.87 215.00
  Q 481.24 210.62 484.32 207.18
  Q 489.58 201.26 491.65 199.25
  C 496.09 194.94 499.37 190.19 503.95 185.21
  C 507.59 181.26 511.96 175.34 516.34 170.62
  Z"
/>
<path fill="#4da6a0" d="
  M 553.91 233.82
  Q 554.10 256.55 553.85 262.25
  Q 552.28 297.79 533.15 330.17
  C 514.07 362.46 482.12 387.00 445.06 394.61
  Q 428.37 398.03 405.84 397.49
  L 436.05 357.71
  Q 438.76 357.23 441.70 356.77
  Q 445.27 356.21 447.25 355.51
  Q 458.82 351.45 465.36 348.03
  Q 470.97 345.09 482.83 335.51
  Q 486.76 332.33 488.98 329.31
  C 490.93 326.65 494.17 323.21 496.33 320.23
  Q 510.69 300.35 515.17 276.04
  Q 515.34 276.73 515.24 277.56
  A 0.17 0.17 0.0 0 0 515.54 277.69
  C 517.60 275.19 517.94 269.81 518.02 266.64
  Q 518.21 258.75 518.09 250.36
  A 1.10 1.09 -18.1 0 1 518.55 249.47
  Q 534.71 238.18 553.91 233.82
  Z"
/>
<path fill="#55b4ae" d="
  M 297.31 301.04
  Q 297.81 301.93 298.45 303.07
  Q 298.92 303.92 300.47 303.39
  L 301.04 304.21
  Q 300.19 304.09 299.99 304.19
  A 1.33 1.33 0.0 0 0 299.42 306.07
  Q 303.25 312.51 304.10 314.10
  C 307.96 321.37 313.57 327.21 318.07 332.38
  Q 321.71 336.57 327.90 340.74
  Q 339.39 348.51 345.12 350.63
  C 356.96 355.03 369.31 356.94 385.26 358.55
  Q 410.49 361.09 436.05 357.71
  L 405.84 397.49
  Q 387.22 397.78 368.77 395.27
  Q 347.71 392.40 332.82 386.28
  C 300.71 373.06 276.01 346.34 262.72 314.33
  C 267.64 306.06 272.72 299.72 283.12 299.71
  Q 290.12 299.70 297.31 301.04
  Z"
/>
<path fill="#ffffff" d="
  M 93.41 514.86
  C 76.62 514.85 60.56 507.93 53.36 491.93
  C 49.54 483.47 49.61 476.79 49.60 465.79
  Q 49.58 442.63 49.66 431.56
  A 0.60 0.60 0.0 0 1 50.26 430.96
  L 67.41 430.96
  A 0.61 0.61 0.0 0 1 68.02 431.57
  Q 67.94 471.03 67.93 472.99
  C 67.90 488.27 78.11 498.66 93.41 498.66
  C 108.72 498.66 118.93 488.28 118.90 472.99
  Q 118.89 471.04 118.82 431.58
  A 0.61 0.61 0.0 0 1 119.43 430.97
  L 136.58 430.97
  A 0.60 0.60 0.0 0 1 137.18 431.57
  Q 137.26 442.64 137.24 465.80
  C 137.22 476.80 137.29 483.48 133.47 491.94
  C 126.26 507.94 110.21 514.86 93.41 514.86
  Z"
/>
<path fill="#ffffff" d="
  M 360.70 431.07
  Q 364.09 431.08 367.46 431.02
  A 0.85 0.85 0.0 0 1 368.27 431.57
  L 389.24 488.75
  A 0.38 0.38 0.0 0 0 389.95 488.76
  L 412.76 431.63
  A 0.75 0.74 11.2 0 1 413.45 431.17
  L 432.51 431.17
  A 0.36 0.36 0.0 0 1 432.84 431.66
  L 398.92 512.87
  A 0.80 0.79 10.9 0 1 398.18 513.36
  L 381.41 513.36
  A 0.81 0.80 -10.7 0 1 380.66 512.85
  Q 369.93 485.62 361.20 462.77
  Q 361.05 462.36 360.63 462.35
  Q 360.21 462.35 360.05 462.77
  Q 351.22 485.58 340.37 512.76
  A 0.81 0.80 10.9 0 1 339.61 513.26
  L 322.84 513.19
  A 0.80 0.79 -10.6 0 1 322.11 512.69
  L 288.56 431.33
  A 0.36 0.36 0.0 0 1 288.89 430.84
  L 307.95 430.93
  A 0.75 0.74 -10.9 0 1 308.64 431.39
  L 331.19 488.62
  A 0.38 0.38 0.0 0 0 331.90 488.62
  L 353.13 431.54
  A 0.85 0.85 0.0 0 1 353.94 430.99
  Q 357.31 431.06 360.70 431.07
  Z"
/>
<path fill="#ffffff" d="
  M 194.03 487.43
  L 194.03 512.62
  A 0.65 0.64 -90.0 0 1 193.39 513.27
  L 176.23 513.27
  A 0.45 0.44 90.0 0 1 175.79 512.82
  L 175.79 431.56
  A 0.57 0.56 90.0 0 1 176.35 430.99
  Q 186.54 430.96 227.26 431.03
  Q 234.57 431.05 239.92 432.69
  C 250.39 435.90 258.17 444.19 259.11 454.99
  Q 260.82 474.63 244.60 482.91
  Q 237.42 486.58 227.54 486.56
  Q 209.66 486.53 194.81 486.65
  A 0.78 0.78 0.0 0 0 194.03 487.43
  Z
  M 194.09 447.77
  L 194.01 470.13
  A 0.63 0.63 0.0 0 0 194.64 470.76
  L 227.92 470.88
  A 12.75 11.29 0.2 0 0 240.71 459.63
  L 240.71 458.59
  A 12.75 11.29 0.2 0 0 228.00 447.26
  L 194.72 447.14
  A 0.63 0.63 0.0 0 0 194.09 447.77
  Z"
/>
<path fill="#ffffff" d="
  M 500.69 431.11
  Q 505.08 431.12 510.09 431.01
  A 0.72 0.71 -13.5 0 1 510.74 431.40
  L 551.62 512.96
  A 0.28 0.28 0.0 0 1 551.37 513.36
  L 532.19 513.36
  A 1.00 0.98 -12.9 0 1 531.30 512.81
  Q 511.95 473.60 501.35 451.96
  Q 501.04 451.33 500.64 451.33
  Q 500.25 451.32 499.94 451.95
  Q 489.25 473.55 469.73 512.68
  A 1.00 0.98 13.1 0 1 468.84 513.23
  L 449.66 513.14
  A 0.28 0.28 0.0 0 1 449.41 512.74
  L 490.63 431.36
  A 0.72 0.71 13.8 0 1 491.29 430.97
  Q 496.30 431.10 500.69 431.11
  Z"
/>
<path fill="#ffffff" d="
  M 600.52 513.24
  L 583.63 513.24
  A 0.47 0.47 0.0 0 1 583.16 512.77
  L 583.16 431.54
  A 0.50 0.49 -90.0 0 1 583.65 431.04
  Q 597.72 431.00 637.93 431.13
  C 655.25 431.18 668.71 442.57 666.80 460.65
  Q 665.12 476.62 649.48 482.35
  A 0.55 0.54 62.4 0 0 649.23 483.17
  L 669.82 512.78
  A 0.30 0.30 0.0 0 1 669.57 513.25
  L 649.43 513.25
  A 1.45 1.42 72.8 0 1 648.24 512.61
  L 630.58 486.12
  A 2.15 2.14 72.9 0 0 628.80 485.17
  L 601.89 485.17
  A 0.68 0.67 -0.0 0 0 601.21 485.84
  L 601.21 512.55
  A 0.69 0.69 0.0 0 1 600.52 513.24
  Z
  M 601.21 448.02
  L 601.29 469.10
  A 0.71 0.71 0.0 0 0 602.00 469.81
  L 636.78 469.69
  A 11.41 10.30 -0.2 0 0 648.15 459.35
  L 648.15 457.45
  A 11.41 10.30 -0.2 0 0 636.70 447.19
  L 601.92 447.31
  A 0.71 0.71 0.0 0 0 601.21 448.02
  Z"
/>
<path fill="#ffffff" d="
  M 701.21 431.57
  A 0.37 0.37 0.0 0 1 701.58 431.20
  L 745.72 431.04
  A 40.89 39.00 -0.2 0 1 786.74 469.90
  L 786.76 473.98
  A 40.89 39.00 -0.2 0 1 746.00 513.12
  L 701.86 513.28
  A 0.37 0.37 0.0 0 1 701.49 512.91
  L 701.21 431.57
  Z
  M 719.45 447.88
  L 719.37 496.74
  A 0.63 0.63 0.0 0 0 720.00 497.37
  L 744.55 497.41
  A 23.94 22.93 0.1 0 0 768.53 474.52
  L 768.53 470.26
  A 23.94 22.93 0.1 0 0 744.63 447.29
  L 720.08 447.25
  A 0.63 0.63 0.0 0 0 719.45 447.88
  Z"
/>
<path fill="#01030b" d="
  M 194.09 447.77
  A 0.63 0.63 0.0 0 1 194.72 447.14
  L 228.00 447.26
  A 12.75 11.29 0.2 0 1 240.71 458.59
  L 240.71 459.63
  A 12.75 11.29 0.2 0 1 227.92 470.88
  L 194.64 470.76
  A 0.63 0.63 0.0 0 1 194.01 470.13
  L 194.09 447.77
  Z"
/>
<path fill="#01030b" d="
  M 601.21 448.02
  A 0.71 0.71 0.0 0 1 601.92 447.31
  L 636.70 447.19
  A 11.41 10.30 -0.2 0 1 648.15 457.45
  L 648.15 459.35
  A 11.41 10.30 -0.2 0 1 636.78 469.69
  L 602.00 469.81
  A 0.71 0.71 0.0 0 1 601.29 469.10
  L 601.21 448.02
  Z"
/>
<path fill="#01030b" d="
  M 719.45 447.88
  A 0.63 0.63 0.0 0 1 720.08 447.25
  L 744.63 447.29
  A 23.94 22.93 0.1 0 1 768.53 470.26
  L 768.53 474.52
  A 23.94 22.93 0.1 0 1 744.55 497.41
  L 720.00 497.37
  A 0.63 0.63 0.0 0 1 719.37 496.74
  L 719.45 447.88
  Z"
/>
<path fill="#55b4ae" d="
  M 228.13 546.97
  C 225.53 546.14 224.48 545.46 221.45 545.95
  A 2.10 2.03 -9.8 0 0 219.70 548.34
  Q 219.87 549.28 221.17 549.57
  C 226.01 550.68 231.61 551.06 231.49 557.01
  C 231.37 563.13 224.12 564.07 219.48 563.03
  Q 217.19 562.52 215.29 560.38
  A 0.94 0.92 37.7 0 1 215.15 559.36
  Q 215.61 558.43 216.95 557.64
  A 0.85 0.85 0.0 0 1 217.91 557.70
  C 220.44 559.66 223.02 561.04 226.13 559.50
  A 2.35 2.09 -31.0 0 0 227.15 556.24
  C 224.38 552.55 215.44 555.13 215.87 547.53
  Q 216.12 543.21 220.60 542.09
  Q 225.69 540.82 230.02 544.29
  A 1.00 1.00 0.0 0 1 230.03 545.85
  L 228.80 546.85
  A 0.72 0.71 34.4 0 1 228.13 546.97
  Z"
/>
<path fill="#55b4ae" d="
  M 269.1302 541.7453
  A 10.97 10.54 -94.6 0 1 280.5160 551.8347
  A 10.97 10.54 -94.6 0 1 270.8898 563.6147
  A 10.97 10.54 -94.6 0 1 259.5040 553.5253
  A 10.97 10.54 -94.6 0 1 269.1302 541.7453
  Z
  M 270.5486 545.7505
  A 7.13 6.67 -84.7 0 0 263.2485 552.2339
  A 7.13 6.67 -84.7 0 0 269.2314 559.9495
  A 7.13 6.67 -84.7 0 0 276.5315 553.4661
  A 7.13 6.67 -84.7 0 0 270.5486 545.7505
  Z"
/>
<path fill="#55b4ae" d="
  M 683.83 552.85
  Q 683.87 555.57 684.35 556.43
  C 686.69 560.58 691.00 560.49 694.70 558.03
  A 1.54 1.54 0.0 0 1 696.74 558.34
  L 697.51 559.29
  A 1.35 1.35 0.0 0 1 697.26 561.23
  Q 690.50 566.13 684.05 561.65
  Q 679.22 558.30 679.14 552.92
  Q 679.06 547.54 683.79 544.04
  Q 690.10 539.37 697.00 544.06
  A 1.35 1.35 0.0 0 1 697.31 545.99
  L 696.57 546.97
  A 1.54 1.54 0.0 0 1 694.54 547.34
  C 690.77 544.99 686.46 545.03 684.25 549.25
  Q 683.79 550.12 683.83 552.85
  Z"
/>
<path fill="#4da6a0" d="
  M 166.48 550.79
  Q 169.25 550.80 169.81 550.75
  A 1.18 1.18 0.0 0 0 170.89 549.60
  L 171.05 543.07
  A 1.01 0.99 -8.0 0 1 171.77 542.13
  Q 173.11 541.72 174.43 541.99
  A 1.20 1.20 0.0 0 1 175.39 543.19
  Q 175.31 548.22 175.29 552.69
  Q 175.28 557.16 175.34 562.19
  A 1.20 1.20 0.0 0 1 174.37 563.38
  Q 173.05 563.64 171.71 563.22
  A 1.01 0.99 8.3 0 1 171.00 562.28
  L 170.88 555.75
  A 1.18 1.18 0.0 0 0 169.80 554.59
  Q 169.24 554.54 166.47 554.53
  Q 163.69 554.52 163.14 554.57
  A 1.18 1.18 0.0 0 0 162.05 555.72
  L 161.89 562.25
  A 1.01 0.99 -8.0 0 1 161.17 563.19
  Q 159.83 563.60 158.51 563.33
  A 1.20 1.20 0.0 0 1 157.55 562.13
  Q 157.64 557.10 157.65 552.63
  Q 157.66 548.16 157.61 543.14
  A 1.20 1.20 0.0 0 1 158.57 541.94
  Q 159.90 541.68 161.23 542.10
  A 1.01 0.99 8.3 0 1 161.95 543.04
  L 162.07 549.57
  A 1.18 1.18 0.0 0 0 163.15 550.73
  Q 163.70 550.78 166.48 550.79
  Z"
/>
<path fill="#55b4ae" d="
  M 195.79 549.92
  Q 196.50 549.92 197.12 548.87
  Q 198.94 545.77 200.28 543.37
  A 2.43 2.41 14.5 0 1 202.39 542.14
  L 204.49 542.14
  A 0.74 0.74 0.0 0 1 205.07 543.33
  Q 204.17 544.50 200.21 550.67
  C 198.75 552.94 198.08 554.50 198.06 557.57
  Q 198.05 560.89 197.73 562.39
  A 1.09 1.09 0.0 0 1 197.13 563.15
  Q 196.67 563.38 195.73 563.37
  Q 194.79 563.37 194.33 563.14
  A 1.09 1.09 0.0 0 1 193.74 562.37
  Q 193.43 560.87 193.45 557.55
  C 193.46 554.48 192.81 552.91 191.37 550.63
  Q 187.47 544.42 186.58 543.24
  A 0.74 0.74 0.0 0 1 187.17 542.06
  L 189.27 542.08
  A 2.43 2.41 -14.0 0 1 191.37 543.33
  Q 192.69 545.74 194.48 548.86
  Q 195.08 549.91 195.79 549.92
  Z"
/>
<path fill="#55b4ae" d="
  M 317.36 541.92
  Q 318.48 541.93 319.38 542.31
  A 1.02 0.99 89.7 0 1 319.92 542.86
  L 327.66 562.21
  A 0.93 0.93 0.0 0 1 326.80 563.49
  L 325.43 563.49
  A 1.77 1.77 0.0 0 1 323.79 562.39
  L 322.81 560.00
  A 1.76 1.74 81.7 0 0 321.38 558.93
  Q 320.82 558.86 317.28 558.85
  Q 313.74 558.83 313.17 558.89
  A 1.76 1.74 -81.1 0 0 311.73 559.94
  L 310.73 562.33
  A 1.77 1.77 0.0 0 1 309.08 563.41
  L 307.71 563.40
  A 0.93 0.93 0.0 0 1 306.86 562.11
  L 314.79 542.83
  A 1.02 0.99 -89.1 0 1 315.34 542.29
  Q 316.24 541.92 317.36 541.92
  Z
  M 317.31 555.70
  Q 318.79 555.69 320.04 555.47
  A 0.78 0.77 72.1 0 0 320.60 554.36
  Q 319.15 551.45 317.93 548.52
  Q 317.76 548.12 317.26 548.12
  Q 316.75 548.12 316.59 548.53
  Q 315.41 551.48 313.99 554.40
  A 0.78 0.77 -72.9 0 0 314.57 555.51
  Q 315.83 555.71 317.31 555.70
  Z"
/>
<path fill="#4da6a0" d="
  M 342.93 549.83
  L 342.93 562.31
  A 1.35 1.35 0.0 0 1 341.58 563.66
  L 340.09 563.66
  A 1.22 1.22 0.0 0 1 338.87 562.44
  L 338.87 543.34
  A 1.20 1.20 0.0 0 1 339.91 542.15
  C 343.04 541.73 343.38 543.16 345.11 545.44
  Q 348.39 549.77 352.01 555.07
  A 0.35 0.35 0.0 0 0 352.65 554.87
  L 352.65 543.44
  A 1.49 1.49 0.0 0 1 354.14 541.95
  L 355.31 541.95
  A 1.26 1.26 0.0 0 1 356.57 543.21
  L 356.57 562.45
  A 0.71 0.70 83.3 0 1 356.03 563.14
  Q 354.59 563.49 353.46 562.92
  A 2.53 2.42 84.3 0 1 352.56 562.15
  L 343.34 549.70
  A 0.23 0.23 0.0 0 0 342.93 549.83
  Z"
/>
<path fill="#55b4ae" d="
  M 416.44 542.90
  A 0.51 0.51 0.0 0 1 416.94 542.39
  Q 422.34 542.26 423.22 542.18
  C 428.55 541.69 432.86 544.18 432.59 549.97
  C 432.28 556.67 426.19 556.40 421.30 556.47
  A 1.08 1.08 0.0 0 0 420.24 557.55
  L 420.24 561.96
  A 1.28 1.28 0.0 0 1 418.96 563.24
  L 417.78 563.24
  A 1.34 1.34 0.0 0 1 416.44 561.90
  L 416.44 542.90
  Z
  M 419.86 546.79
  L 419.94 552.77
  A 0.77 0.77 0.0 0 0 420.72 553.53
  L 424.96 553.47
  A 3.83 3.33 -0.8 0 0 428.75 550.09
  L 428.73 549.23
  A 3.83 3.33 -0.8 0 0 424.86 545.95
  L 420.62 546.01
  A 0.77 0.77 0.0 0 0 419.86 546.79
  Z"
/>
<path fill="#55b4ae" d="
  M 444.04 552.72
  Q 444.02 547.76 444.26 542.89
  A 0.70 0.70 0.0 0 1 444.95 542.23
  L 457.97 542.21
  A 1.22 1.21 -0.1 0 1 459.19 543.41
  L 459.19 544.54
  A 1.26 1.26 0.0 0 1 457.94 545.80
  L 448.96 545.82
  A 1.09 1.08 -0.1 0 0 447.88 546.90
  L 447.88 549.48
  A 1.34 1.34 0.0 0 0 449.20 550.81
  L 456.84 550.91
  A 1.00 0.98 73.4 0 1 457.68 551.37
  Q 457.88 551.71 457.89 552.67
  Q 457.89 553.62 457.69 553.96
  A 1.00 0.98 -73.8 0 1 456.86 554.43
  L 449.22 554.58
  A 1.34 1.34 0.0 0 0 447.91 555.93
  L 447.92 558.51
  A 1.09 1.08 -0.3 0 0 449.02 559.58
  L 457.99 559.53
  A 1.26 1.26 0.0 0 1 459.26 560.78
  L 459.26 561.91
  A 1.22 1.21 -0.3 0 1 458.05 563.12
  L 445.04 563.20
  A 0.70 0.70 0.0 0 1 444.34 562.54
  Q 444.06 557.68 444.04 552.72
  Z"
/>
<path fill="#4da6a0" d="
  M 503.55 562.47
  A 0.88 0.87 90.0 0 1 502.68 563.35
  L 500.60 563.35
  A 0.98 0.98 0.0 0 1 499.62 562.37
  L 499.62 542.77
  A 0.64 0.64 0.0 0 1 500.26 542.13
  L 513.14 542.13
  A 1.10 1.09 -90.0 0 1 514.23 543.23
  L 514.23 544.67
  A 1.40 1.40 0.0 0 1 512.83 546.07
  L 504.66 546.07
  A 1.08 1.08 0.0 0 0 503.58 547.15
  L 503.58 549.96
  A 1.02 1.02 0.0 0 0 504.71 550.97
  Q 505.90 550.83 511.75 551.05
  Q 513.51 551.11 513.18 553.99
  A 1.27 1.27 0.0 0 1 511.92 555.11
  L 504.95 555.11
  A 1.40 1.40 0.0 0 0 503.55 556.51
  L 503.55 562.47
  Z"
/>
<path fill="#55b4ae" d="
  M 545.5474 552.8065
  A 9.38 9.38 0.0 0 1 537.2534 563.1591
  L 535.5040 563.3523
  A 9.38 9.38 0.0 0 1 525.1513 555.0582
  L 524.8726 552.5335
  A 9.38 9.38 0.0 0 1 533.1666 542.1809
  L 534.9160 541.9877
  A 9.38 9.38 0.0 0 1 545.2687 550.2818
  L 545.5474 552.8065
  Z
  M 535.9130 545.5760
  A 7.28 6.42 -84.3 0 0 528.8017 552.1824
  A 7.28 6.42 -84.3 0 0 534.4670 560.0640
  A 7.28 6.42 -84.3 0 0 541.5783 553.4576
  A 7.28 6.42 -84.3 0 0 535.9130 545.5760
  Z"
/>
<path fill="#55b4ae" d="
  M 573.83 562.33
  A 0.70 0.70 0.0 0 1 573.25 563.41
  L 571.63 563.41
  A 2.69 2.68 -17.3 0 1 569.42 562.25
  L 565.63 556.80
  A 0.95 0.94 -9.9 0 0 565.13 556.45
  Q 563.36 555.94 561.83 556.65
  A 1.21 1.21 0.0 0 0 561.12 557.75
  L 561.12 561.58
  A 1.74 1.74 0.0 0 1 559.38 563.32
  L 558.95 563.32
  A 1.67 1.67 0.0 0 1 557.28 561.76
  C 557.02 557.82 556.68 553.67 557.06 549.44
  Q 557.47 545.00 557.43 542.95
  A 0.56 0.55 86.7 0 1 557.93 542.38
  Q 563.31 541.93 567.22 542.10
  C 573.62 542.37 576.12 550.02 571.74 553.98
  Q 570.09 555.47 570.01 555.57
  A 0.78 0.78 0.0 0 0 569.97 556.48
  L 573.83 562.33
  Z
  M 561.33 546.99
  L 561.14 551.55
  A 1.07 1.07 0.0 0 0 562.16 552.66
  L 566.38 552.84
  A 3.17 3.16 2.4 0 0 569.68 549.82
  L 569.69 549.44
  A 3.17 3.16 2.4 0 0 566.66 546.15
  L 562.44 545.97
  A 1.07 1.07 0.0 0 0 561.33 546.99
  Z"
/>
<path fill="#55b4ae" d="
  M 596.39 551.13
  Q 596.75 551.13 597.08 550.61
  Q 599.70 546.48 602.05 542.94
  A 1.60 1.57 7.6 0 1 602.86 542.33
  Q 604.34 541.85 606.29 542.27
  A 0.51 0.51 0.0 0 1 606.69 542.77
  L 606.69 561.62
  A 1.82 1.81 -90.0 0 1 604.88 563.44
  L 604.41 563.44
  A 1.49 1.48 88.4 0 1 602.93 562.03
  Q 602.61 556.20 603.10 550.51
  Q 603.16 549.76 602.90 549.49
  A 0.58 0.57 -51.1 0 0 602.00 549.59
  Q 599.45 553.79 597.21 556.48
  Q 596.68 557.13 596.38 557.13
  Q 596.08 557.13 595.55 556.48
  Q 593.32 553.78 590.77 549.58
  A 0.58 0.57 51.2 0 0 589.87 549.48
  Q 589.61 549.75 589.67 550.50
  Q 590.15 556.19 589.82 562.02
  A 1.49 1.48 -88.3 0 1 588.34 563.43
  L 587.87 563.42
  A 1.82 1.81 -89.9 0 1 586.06 561.60
  L 586.10 542.75
  A 0.51 0.51 0.0 0 1 586.50 542.25
  Q 588.45 541.84 589.93 542.32
  A 1.60 1.57 -7.5 0 1 590.74 542.93
  Q 593.08 546.47 595.69 550.61
  Q 596.02 551.13 596.39 551.13
  Z"
/>
<path fill="#4da6a0" d="
  M 654.70 550.13
  A 0.61 0.61 0.0 0 0 653.62 550.51
  L 653.62 562.22
  A 1.06 1.06 0.0 0 1 652.56 563.28
  L 650.85 563.28
  A 1.13 1.13 0.0 0 1 649.72 562.15
  L 649.72 543.41
  A 1.17 1.16 -7.9 0 1 650.57 542.29
  Q 651.57 542.00 653.00 542.17
  A 1.86 1.83 -13.6 0 1 654.30 542.95
  L 662.80 555.16
  A 0.54 0.54 0.0 0 0 663.78 554.86
  L 663.78 542.93
  A 0.99 0.98 90.0 0 1 664.76 541.94
  L 666.62 541.94
  A 1.32 1.32 0.0 0 1 667.94 543.37
  Q 667.34 550.51 667.75 561.36
  Q 667.82 563.09 666.69 563.37
  C 664.27 563.96 663.16 562.82 661.89 560.47
  Q 659.39 555.79 654.70 550.13
  Z"
/>
<path fill="#55b4ae" d="
  M 722.95 552.70
  Q 722.94 553.65 722.73 553.99
  A 1.00 0.98 -73.5 0 1 721.90 554.46
  L 714.24 554.57
  A 1.34 1.34 0.0 0 0 712.92 555.91
  L 712.92 558.50
  A 1.09 1.08 0.0 0 0 714.01 559.58
  L 723.01 559.58
  A 1.26 1.26 0.0 0 1 724.27 560.84
  L 724.27 561.97
  A 1.22 1.21 0.0 0 1 723.05 563.18
  L 710.00 563.18
  A 0.70 0.70 0.0 0 1 709.30 562.52
  Q 709.05 557.64 709.06 552.67
  Q 709.07 547.70 709.34 542.82
  A 0.70 0.70 0.0 0 1 710.04 542.17
  L 723.09 542.22
  A 1.22 1.21 0.2 0 1 724.31 543.43
  L 724.30 544.56
  A 1.26 1.26 0.0 0 1 723.04 545.82
  L 714.04 545.78
  A 1.09 1.08 0.2 0 0 712.94 546.86
  L 712.93 549.45
  A 1.34 1.34 0.0 0 0 714.25 550.79
  L 721.91 550.93
  A 1.00 0.98 73.7 0 1 722.74 551.40
  Q 722.95 551.74 722.95 552.70
  Z"
/>
<path fill="#55b4ae" d="
  M 130.08 542.84
  A 0.52 0.52 0.0 0 1 130.59 542.33
  Q 136.04 542.21 136.93 542.14
  C 142.32 541.66 146.67 544.19 146.38 550.04
  C 146.05 556.81 139.89 556.52 134.95 556.58
  A 1.09 1.09 0.0 0 0 133.87 557.66
  L 133.86 562.12
  A 1.29 1.29 0.0 0 1 132.56 563.41
  L 131.37 563.41
  A 1.35 1.35 0.0 0 1 130.02 562.05
  L 130.08 542.84
  Z
  M 133.55 547.06
  L 133.63 552.40
  A 1.10 1.10 0.0 0 0 134.74 553.48
  L 138.12 553.44
  A 4.12 3.32 -0.8 0 0 142.20 550.06
  L 142.18 549.16
  A 4.12 3.32 -0.8 0 0 138.02 545.90
  L 134.64 545.95
  A 1.10 1.10 0.0 0 0 133.55 547.06
  Z"
/>
<rect fill="#55b4ae" x="-1.82" y="-10.56" transform="translate(245.36,552.78) rotate(0.2)" width="3.64" height="21.12" rx="0.61"/>
<path fill="#4da6a0" d="
  M 369.46 542.96
  A 0.86 0.86 0.0 0 1 370.33 542.11
  L 377.64 542.20
  A 10.63 9.65 0.7 0 1 388.15 551.97
  L 388.13 553.91
  A 10.63 9.65 0.7 0 1 377.38 563.43
  L 370.07 563.34
  A 0.86 0.86 0.0 0 1 369.22 562.47
  L 369.46 542.96
  Z
  M 373.04 547.17
  L 373.68 558.57
  A 1.11 1.11 0.0 0 0 374.85 559.62
  L 377.71 559.46
  A 6.02 5.80 -3.2 0 0 383.40 553.33
  L 383.29 551.29
  A 6.02 5.80 -3.2 0 0 376.95 545.84
  L 374.09 546.00
  A 1.11 1.11 0.0 0 0 373.04 547.17
  Z"
/>
<path fill="#55b4ae" d="
  M 487.37 563.21
  L 485.04 563.21
  A 2.15 2.14 -17.6 0 1 483.29 562.31
  L 479.44 556.95
  A 1.28 1.25 87.2 0 0 479.04 556.58
  Q 478.35 556.18 476.53 556.22
  A 1.28 1.28 0.0 0 0 475.27 557.50
  L 475.27 561.88
  A 1.52 1.52 0.0 0 1 473.75 563.40
  L 472.51 563.40
  A 1.26 1.26 0.0 0 1 471.25 562.14
  L 471.25 542.94
  A 0.78 0.77 -89.3 0 1 472.04 542.16
  Q 480.92 542.37 481.63 542.40
  Q 484.42 542.53 486.55 545.24
  A 2.48 2.37 -73.4 0 1 486.95 546.02
  Q 488.91 552.47 483.80 555.44
  A 0.62 0.62 0.0 0 0 483.60 556.33
  L 487.81 562.37
  A 0.54 0.54 0.0 0 1 487.37 563.21
  Z
  M 475.22 546.73
  L 475.20 551.69
  A 0.90 0.90 0.0 0 0 476.10 552.59
  L 480.26 552.60
  A 3.20 3.11 0.2 0 0 483.47 549.50
  L 483.47 548.96
  A 3.20 3.11 0.2 0 0 480.28 545.84
  L 476.12 545.83
  A 0.90 0.90 0.0 0 0 475.22 546.73
  Z"
/>
<path fill="#55b4ae" d="
  M 620.50 563.25
  L 618.19 563.50
  A 0.82 0.82 0.0 0 1 617.36 562.35
  L 626.16 542.73
  A 0.81 0.78 9.4 0 1 626.82 542.27
  Q 628.64 542.12 629.85 542.44
  A 1.55 1.55 0.0 0 1 630.87 543.34
  L 638.34 562.01
  A 0.76 0.75 76.1 0 1 637.72 563.05
  L 636.05 563.23
  A 1.19 1.17 -9.5 0 1 634.76 562.32
  Q 633.98 558.94 632.26 558.92
  Q 625.87 558.85 623.56 559.39
  Q 622.74 559.58 621.93 562.08
  A 1.69 1.68 5.5 0 1 620.50 563.25
  Z
  M 625.12 554.62
  A 0.77 0.77 0.0 0 0 625.85 555.64
  L 630.49 555.60
  A 0.77 0.77 0.0 0 0 631.21 554.56
  L 628.82 548.14
  A 0.77 0.77 0.0 0 0 627.37 548.16
  L 625.12 554.62
  Z"
/>
<ellipse fill="#01030b" cx="0.00" cy="0.00" transform="translate(535.19,552.82) rotate(-84.3)" rx="7.28" ry="6.42"/>
<path fill="#01030b" d="
  M 133.55 547.06
  A 1.10 1.10 0.0 0 1 134.64 545.95
  L 138.02 545.90
  A 4.12 3.32 -0.8 0 1 142.18 549.16
  L 142.20 550.06
  A 4.12 3.32 -0.8 0 1 138.12 553.44
  L 134.74 553.48
  A 1.10 1.10 0.0 0 1 133.63 552.40
  L 133.55 547.06
  Z"
/>
<path fill="#01030b" d="
  M 373.04 547.17
  A 1.11 1.11 0.0 0 1 374.09 546.00
  L 376.95 545.84
  A 6.02 5.80 -3.2 0 1 383.29 551.29
  L 383.40 553.33
  A 6.02 5.80 -3.2 0 1 377.71 559.46
  L 374.85 559.62
  A 1.11 1.11 0.0 0 1 373.68 558.57
  L 373.04 547.17
  Z"
/>
<path fill="#01030b" d="
  M 419.86 546.79
  A 0.77 0.77 0.0 0 1 420.62 546.01
  L 424.86 545.95
  A 3.83 3.33 -0.8 0 1 428.73 549.23
  L 428.75 550.09
  A 3.83 3.33 -0.8 0 1 424.96 553.47
  L 420.72 553.53
  A 0.77 0.77 0.0 0 1 419.94 552.77
  L 419.86 546.79
  Z"
/>
<path fill="#01030b" d="
  M 475.22 546.73
  A 0.90 0.90 0.0 0 1 476.12 545.83
  L 480.28 545.84
  A 3.20 3.11 0.2 0 1 483.47 548.96
  L 483.47 549.50
  A 3.20 3.11 0.2 0 1 480.26 552.60
  L 476.10 552.59
  A 0.90 0.90 0.0 0 1 475.20 551.69
  L 475.22 546.73
  Z"
/>
<path fill="#01030b" d="
  M 561.33 546.99
  A 1.07 1.07 0.0 0 1 562.44 545.97
  L 566.66 546.15
  A 3.17 3.16 2.4 0 1 569.69 549.44
  L 569.68 549.82
  A 3.17 3.16 2.4 0 1 566.38 552.84
  L 562.16 552.66
  A 1.07 1.07 0.0 0 1 561.14 551.55
  L 561.33 546.99
  Z"
/>
<ellipse fill="#01030b" cx="0.00" cy="0.00" transform="translate(269.89,552.85) rotate(-84.7)" rx="7.13" ry="6.67"/>
<path fill="#01030b" d="
  M 625.12 554.62
  L 627.37 548.16
  A 0.77 0.77 0.0 0 1 628.82 548.14
  L 631.21 554.56
  A 0.77 0.77 0.0 0 1 630.49 555.60
  L 625.85 555.64
  A 0.77 0.77 0.0 0 1 625.12 554.62
  Z"
/>
<path fill="#01030b" d="
  M 317.26 548.12
  Q 317.76 548.12 317.93 548.52
  Q 319.15 551.45 320.60 554.36
  A 0.78 0.77 72.1 0 1 320.04 555.47
  Q 318.79 555.69 317.31 555.70
  Q 315.83 555.71 314.57 555.51
  A 0.78 0.77 -72.9 0 1 313.99 554.40
  Q 315.41 551.48 316.59 548.53
  Q 316.75 548.12 317.26 548.12
  Z"
/>
<rect fill="#55b4ae" x="-27.61" y="-2.38" transform="translate(77.06,553.04) rotate(0.1)" width="55.22" height="4.76" rx="0.60"/>
<rect fill="#55b4ae" x="744.36" y="550.73" width="43.54" height="4.60" rx="0.78"/>
</svg>
